<?xml version="1.0" encoding="UTF-8" standalone="no"?>
<!DOCTYPE svg PUBLIC "-//W3C//DTD SVG 1.1//EN"
 "http://www.w3.org/Graphics/SVG/1.1/DTD/svg11.dtd">
<!-- Generated by graphviz version 2.43.0 (0)
 -->
<!-- Title: A1 Pages: 1 -->
<svg width="157pt" height="272pt"
 viewBox="0.00 0.00 157.00 271.76" xmlns="http://www.w3.org/2000/svg" xmlns:xlink="http://www.w3.org/1999/xlink">
<g id="graph0" class="graph" transform="scale(1 1) rotate(0) translate(4 267.76)">
<title>A1</title>
<polygon fill="transparent" stroke="transparent" points="-4,4 -4,-267.76 153,-267.76 153,4 -4,4"/>
<text text-anchor="middle" x="74.5" y="-9.2" font-family="Times,serif" font-size="16.00" fill="grey">A1</text>
<!-- 0 -->
<g id="node1" class="node">
<title>0</title>
<ellipse fill="#ffffff" stroke="grey" cx="60.25" cy="-126.21" rx="14.5" ry="14.5"/>
<text text-anchor="middle" x="60.25" y="-122.51" font-family="Times,serif" font-size="14.00">0</text>
</g>
<!-- 5 -->
<g id="node6" class="node">
<title>5</title>
<ellipse fill="#ffffff" stroke="grey" cx="69.86" cy="-82.33" rx="14.5" ry="14.5"/>
<text text-anchor="middle" x="69.86" y="-78.63" font-family="Times,serif" font-size="14.00">5</text>
</g>
<!-- 0&#45;&gt;5 -->
<g id="edge1" class="edge">
<title>0&#45;&gt;5</title>
<path fill="none" stroke="grey" d="M63.4,-111.84C63.97,-109.24 64.57,-106.48 65.18,-103.72"/>
<polygon fill="grey" stroke="grey" points="67.63,-103.95 66.74,-96.58 62.85,-102.9 67.63,-103.95"/>
</g>
<!-- 6 -->
<g id="node7" class="node">
<title>6</title>
<ellipse fill="#ffffff" stroke="grey" cx="14.5" cy="-127.13" rx="14.5" ry="14.5"/>
<text text-anchor="middle" x="14.5" y="-123.43" font-family="Times,serif" font-size="14.00">6</text>
</g>
<!-- 0&#45;&gt;6 -->
<g id="edge2" class="edge">
<title>0&#45;&gt;6</title>
<path fill="none" stroke="grey" d="M45.52,-126.51C42.58,-126.57 39.44,-126.63 36.32,-126.69"/>
<polygon fill="grey" stroke="grey" points="36.15,-124.25 29.2,-126.84 36.25,-129.15 36.15,-124.25"/>
</g>
<!-- 1 -->
<g id="node2" class="node">
<title>1</title>
<ellipse fill="#ffffff" stroke="grey" cx="79.04" cy="-207.08" rx="14.5" ry="14.5"/>
<text text-anchor="middle" x="79.04" y="-203.38" font-family="Times,serif" font-size="14.00">1</text>
</g>
<!-- 4 -->
<g id="node5" class="node">
<title>4</title>
<ellipse fill="#ffffff" stroke="grey" cx="76.69" cy="-249.26" rx="14.5" ry="14.5"/>
<text text-anchor="middle" x="76.69" y="-245.56" font-family="Times,serif" font-size="14.00">4</text>
</g>
<!-- 1&#45;&gt;4 -->
<g id="edge3" class="edge">
<title>1&#45;&gt;4</title>
<path fill="none" stroke="grey" d="M78.22,-221.83C78.12,-223.66 78.01,-225.56 77.91,-227.47"/>
<polygon fill="grey" stroke="grey" points="75.45,-227.6 77.5,-234.73 80.34,-227.87 75.45,-227.6"/>
</g>
<!-- 2 -->
<g id="node3" class="node">
<title>2</title>
<ellipse fill="#ffffff" stroke="grey" cx="134.5" cy="-162.05" rx="14.5" ry="14.5"/>
<text text-anchor="middle" x="134.5" y="-158.35" font-family="Times,serif" font-size="14.00">2</text>
</g>
<!-- 3 -->
<g id="node4" class="node">
<title>3</title>
<ellipse fill="#ffffff" stroke="grey" cx="88.75" cy="-163.21" rx="14.5" ry="14.5"/>
<text text-anchor="middle" x="88.75" y="-159.51" font-family="Times,serif" font-size="14.00">3</text>
</g>
<!-- 3&#45;&gt;0 -->
<g id="edge4" class="edge">
<title>3&#45;&gt;0</title>
<path fill="none" stroke="grey" d="M79.73,-151.51C77.72,-148.89 75.54,-146.07 73.4,-143.28"/>
<polygon fill="grey" stroke="grey" points="75.32,-141.77 69.11,-137.72 71.44,-144.76 75.32,-141.77"/>
</g>
<!-- 3&#45;&gt;1 -->
<g id="edge5" class="edge">
<title>3&#45;&gt;1</title>
<path fill="none" stroke="grey" d="M85.57,-177.58C84.99,-180.18 84.38,-182.94 83.77,-185.7"/>
<polygon fill="grey" stroke="grey" points="81.31,-185.47 82.19,-192.84 86.1,-186.53 81.31,-185.47"/>
</g>
<!-- 3&#45;&gt;2 -->
<g id="edge6" class="edge">
<title>3&#45;&gt;2</title>
<path fill="none" stroke="grey" d="M103.48,-162.84C106.41,-162.76 109.56,-162.68 112.68,-162.6"/>
<polygon fill="grey" stroke="grey" points="112.86,-165.05 119.8,-162.42 112.74,-160.15 112.86,-165.05"/>
</g>
<!-- 7 -->
<g id="node8" class="node">
<title>7</title>
<ellipse fill="#ffffff" stroke="grey" cx="75.75" cy="-40.5" rx="14.5" ry="14.5"/>
<text text-anchor="middle" x="75.75" y="-36.8" font-family="Times,serif" font-size="14.00">7</text>
</g>
<!-- 5&#45;&gt;7 -->
<g id="edge7" class="edge">
<title>5&#45;&gt;7</title>
<path fill="none" stroke="grey" d="M71.92,-67.7C72.18,-65.89 72.44,-64 72.71,-62.11"/>
<polygon fill="grey" stroke="grey" points="75.17,-62.19 73.72,-54.91 70.32,-61.5 75.17,-62.19"/>
</g>
</g>
</svg>
