<?xml version="1.0" encoding="UTF-8" standalone="no"?>
<!DOCTYPE svg PUBLIC "-//W3C//DTD SVG 1.1//EN"
 "http://www.w3.org/Graphics/SVG/1.1/DTD/svg11.dtd">
<!-- Generated by graphviz version 2.43.0 (0)
 -->
<!-- Title: Carte Pages: 1 -->
<svg width="180pt" height="388pt"
 viewBox="0.00 0.00 179.50 388.00" xmlns="http://www.w3.org/2000/svg" xmlns:xlink="http://www.w3.org/1999/xlink">
<g id="graph0" class="graph" transform="scale(1 1) rotate(0) translate(4 384)">
<title>Carte</title>
<polygon fill="transparent" stroke="transparent" points="-4,4 -4,-384 175.5,-384 175.5,4 -4,4"/>
<text text-anchor="middle" x="85.75" y="-9.2" font-family="Times,serif" font-size="16.00" fill="grey">Carte</text>
<!-- Fr -->
<g id="node1" class="node">
<title>Fr</title>
<ellipse fill="#cdff00" stroke="grey" cx="95.5" cy="-365.5" rx="14.5" ry="14.5"/>
<text text-anchor="middle" x="95.5" y="-361.8" font-family="Times,serif" font-size="14.00">Fr</text>
</g>
<!-- Lux -->
<g id="node2" class="node">
<title>Lux</title>
<ellipse fill="#ff00bf" stroke="grey" cx="52.5" cy="-300.5" rx="14.5" ry="14.5"/>
<text text-anchor="middle" x="52.5" y="-296.8" font-family="Times,serif" font-size="14.00">Lux</text>
</g>
<!-- Fr&#45;&#45;Lux -->
<g id="edge1" class="edge">
<title>Fr&#45;&#45;Lux</title>
<path fill="none" stroke="grey" d="M87.61,-352.94C79.85,-341.58 68.08,-324.32 60.34,-312.98"/>
</g>
<!-- Bel -->
<g id="node3" class="node">
<title>Bel</title>
<ellipse fill="#0018ff" stroke="grey" cx="14.5" cy="-235.5" rx="14.5" ry="14.5"/>
<text text-anchor="middle" x="14.5" y="-231.8" font-family="Times,serif" font-size="14.00">Bel</text>
</g>
<!-- Fr&#45;&#45;Bel -->
<g id="edge2" class="edge">
<title>Fr&#45;&#45;Bel</title>
<path fill="none" stroke="grey" d="M82.56,-358.7C67.05,-351.04 41.54,-336.01 28.5,-315 16.02,-294.89 13.96,-266.62 13.98,-250.06"/>
</g>
<!-- All -->
<g id="node4" class="node">
<title>All</title>
<ellipse fill="#00ff8c" stroke="grey" cx="57.5" cy="-170.5" rx="14.5" ry="14.5"/>
<text text-anchor="middle" x="57.5" y="-166.8" font-family="Times,serif" font-size="14.00">All</text>
</g>
<!-- Fr&#45;&#45;All -->
<g id="edge3" class="edge">
<title>Fr&#45;&#45;All</title>
<path fill="none" stroke="grey" d="M93.12,-351.02C88.58,-325.56 78.28,-268.68 68.5,-221 65.99,-208.75 62.88,-194.86 60.61,-184.92"/>
</g>
<!-- Sui -->
<g id="node6" class="node">
<title>Sui</title>
<ellipse fill="#0018ff" stroke="grey" cx="128.5" cy="-105.5" rx="14.5" ry="14.5"/>
<text text-anchor="middle" x="128.5" y="-101.8" font-family="Times,serif" font-size="14.00">Sui</text>
</g>
<!-- Fr&#45;&#45;Sui -->
<g id="edge4" class="edge">
<title>Fr&#45;&#45;Sui</title>
<path fill="none" stroke="grey" d="M97.23,-350.99C102.92,-306.51 121.03,-164.92 126.75,-120.19"/>
</g>
<!-- It -->
<g id="node7" class="node">
<title>It</title>
<ellipse fill="#00ff8c" stroke="grey" cx="149.5" cy="-40.5" rx="14.5" ry="14.5"/>
<text text-anchor="middle" x="149.5" y="-36.8" font-family="Times,serif" font-size="14.00">It</text>
</g>
<!-- Fr&#45;&#45;It -->
<g id="edge5" class="edge">
<title>Fr&#45;&#45;It</title>
<path fill="none" stroke="grey" d="M106.07,-355.05C126.95,-335.28 171.5,-287.15 171.5,-236.5 171.5,-236.5 171.5,-236.5 171.5,-169.5 171.5,-127.11 159.64,-77.95 153.33,-54.82"/>
</g>
<!-- Lux&#45;&#45;Bel -->
<g id="edge6" class="edge">
<title>Lux&#45;&#45;Bel</title>
<path fill="none" stroke="grey" d="M45.35,-287.65C38.56,-276.39 28.4,-259.54 21.62,-248.3"/>
</g>
<!-- Lux&#45;&#45;All -->
<g id="edge7" class="edge">
<title>Lux&#45;&#45;All</title>
<path fill="none" stroke="grey" d="M53.04,-285.8C54,-261.17 56.01,-209.66 56.97,-185.1"/>
</g>
<!-- Bel&#45;&#45;All -->
<g id="edge8" class="edge">
<title>Bel&#45;&#45;All</title>
<path fill="none" stroke="grey" d="M22.39,-222.94C30.15,-211.58 41.92,-194.32 49.66,-182.98"/>
</g>
<!-- PB -->
<g id="node5" class="node">
<title>PB</title>
<ellipse fill="#cdff00" stroke="grey" cx="36.5" cy="-105.5" rx="14.5" ry="14.5"/>
<text text-anchor="middle" x="36.5" y="-101.8" font-family="Times,serif" font-size="14.00">PB</text>
</g>
<!-- Bel&#45;&#45;PB -->
<g id="edge9" class="edge">
<title>Bel&#45;&#45;PB</title>
<path fill="none" stroke="grey" d="M16.85,-220.8C21.09,-196.17 29.94,-144.66 34.16,-120.1"/>
</g>
<!-- All&#45;&#45;PB -->
<g id="edge10" class="edge">
<title>All&#45;&#45;PB</title>
<path fill="none" stroke="grey" d="M53.15,-156.45C49.54,-145.63 44.45,-130.34 40.85,-119.54"/>
</g>
<!-- All&#45;&#45;Sui -->
<g id="edge11" class="edge">
<title>All&#45;&#45;Sui</title>
<path fill="none" stroke="grey" d="M67.98,-160.2C81.4,-148.29 104.54,-127.76 117.98,-115.83"/>
</g>
<!-- Sui&#45;&#45;It -->
<g id="edge12" class="edge">
<title>Sui&#45;&#45;It</title>
<path fill="none" stroke="grey" d="M132.85,-91.45C136.46,-80.63 141.55,-65.34 145.15,-54.54"/>
</g>
</g>
</svg>
