<?xml version="1.0" encoding="UTF-8" standalone="no"?>
<!DOCTYPE svg PUBLIC "-//W3C//DTD SVG 1.1//EN"
 "http://www.w3.org/Graphics/SVG/1.1/DTD/svg11.dtd">
<!-- Generated by graphviz version 2.43.0 (0)
 -->
<!-- Title: DSATUR_G2 Pages: 1 -->
<svg width="127pt" height="169pt"
 viewBox="0.00 0.00 127.00 168.59" xmlns="http://www.w3.org/2000/svg" xmlns:xlink="http://www.w3.org/1999/xlink">
<g id="graph0" class="graph" transform="scale(1 1) rotate(0) translate(4 164.59)">
<title>DSATUR_G2</title>
<polygon fill="transparent" stroke="transparent" points="-4,4 -4,-164.59 123,-164.59 123,4 -4,4"/>
<text text-anchor="middle" x="59.5" y="-9.2" font-family="Times,serif" font-size="16.00" fill="grey">DSATUR_G2</text>
<!-- 0 -->
<g id="node1" class="node">
<title>0</title>
<ellipse fill="#5cff00" stroke="grey" cx="51.96" cy="-40.5" rx="14.5" ry="14.5"/>
<text text-anchor="middle" x="51.96" y="-36.8" font-family="Times,serif" font-size="14.00">0</text>
</g>
<!-- 1 -->
<g id="node2" class="node">
<title>1</title>
<ellipse fill="#008fff" stroke="grey" cx="103.92" cy="-73.29" rx="14.5" ry="14.5"/>
<text text-anchor="middle" x="103.92" y="-69.59" font-family="Times,serif" font-size="14.00">1</text>
</g>
<!-- 0&#45;&#45;1 -->
<g id="edge1" class="edge">
<title>0&#45;&#45;1</title>
<path fill="none" stroke="grey" d="M64.28,-48.27C72.44,-53.42 83.12,-60.16 91.34,-65.35"/>
</g>
<!-- 2 -->
<g id="node3" class="node">
<title>2</title>
<ellipse fill="#ff00bf" stroke="grey" cx="15.08" cy="-89.62" rx="14.5" ry="14.5"/>
<text text-anchor="middle" x="15.08" y="-85.92" font-family="Times,serif" font-size="14.00">2</text>
</g>
<!-- 0&#45;&#45;2 -->
<g id="edge2" class="edge">
<title>0&#45;&#45;2</title>
<path fill="none" stroke="grey" d="M43.22,-52.14C37.43,-59.86 29.85,-69.95 24.01,-77.72"/>
</g>
<!-- 3 -->
<g id="node4" class="node">
<title>3</title>
<ellipse fill="#5cff00" stroke="grey" cx="64.3" cy="-107.56" rx="14.5" ry="14.5"/>
<text text-anchor="middle" x="64.3" y="-103.86" font-family="Times,serif" font-size="14.00">3</text>
</g>
<!-- 1&#45;&#45;3 -->
<g id="edge3" class="edge">
<title>1&#45;&#45;3</title>
<path fill="none" stroke="grey" d="M92.67,-83.02C87.28,-87.69 80.83,-93.27 75.44,-97.92"/>
</g>
<!-- 4 -->
<g id="node5" class="node">
<title>4</title>
<ellipse fill="#ff00bf" stroke="grey" cx="101.31" cy="-134.71" rx="14.5" ry="14.5"/>
<text text-anchor="middle" x="101.31" y="-131.01" font-family="Times,serif" font-size="14.00">4</text>
</g>
<!-- 1&#45;&#45;4 -->
<g id="edge4" class="edge">
<title>1&#45;&#45;4</title>
<path fill="none" stroke="grey" d="M103.3,-87.85C102.89,-97.5 102.35,-110.12 101.94,-119.83"/>
</g>
<!-- 2&#45;&#45;3 -->
<g id="edge5" class="edge">
<title>2&#45;&#45;3</title>
<path fill="none" stroke="grey" d="M28.79,-94.62C35.62,-97.1 43.85,-100.1 50.66,-102.59"/>
</g>
<!-- 5 -->
<g id="node6" class="node">
<title>5</title>
<ellipse fill="#008fff" stroke="grey" cx="39.34" cy="-146.09" rx="14.5" ry="14.5"/>
<text text-anchor="middle" x="39.34" y="-142.39" font-family="Times,serif" font-size="14.00">5</text>
</g>
<!-- 2&#45;&#45;5 -->
<g id="edge6" class="edge">
<title>2&#45;&#45;5</title>
<path fill="none" stroke="grey" d="M20.83,-103C24.64,-111.87 29.63,-123.48 33.47,-132.41"/>
</g>
<!-- 3&#45;&#45;4 -->
<g id="edge7" class="edge">
<title>3&#45;&#45;4</title>
<path fill="none" stroke="grey" d="M76.01,-116.15C80.33,-119.32 85.22,-122.91 89.55,-126.08"/>
</g>
<!-- 3&#45;&#45;5 -->
<g id="edge8" class="edge">
<title>3&#45;&#45;5</title>
<path fill="none" stroke="grey" d="M56.41,-119.75C53.49,-124.24 50.19,-129.34 47.27,-133.84"/>
</g>
<!-- 4&#45;&#45;5 -->
<g id="edge9" class="edge">
<title>4&#45;&#45;5</title>
<path fill="none" stroke="grey" d="M86.93,-137.35C76.92,-139.19 63.63,-141.63 53.64,-143.46"/>
</g>
</g>
</svg>
