<?xml version="1.0" encoding="UTF-8" standalone="no"?>
<!DOCTYPE svg PUBLIC "-//W3C//DTD SVG 1.1//EN"
 "http://www.w3.org/Graphics/SVG/1.1/DTD/svg11.dtd">
<!-- Generated by graphviz version 2.43.0 (0)
 -->
<!-- Title: FT(M2) Pages: 1 -->
<svg width="85pt" height="193pt"
 viewBox="0.00 0.00 85.00 193.00" xmlns="http://www.w3.org/2000/svg" xmlns:xlink="http://www.w3.org/1999/xlink">
<g id="graph0" class="graph" transform="scale(1 1) rotate(0) translate(4 189)">
<title>FT(M2)</title>
<polygon fill="transparent" stroke="transparent" points="-4,4 -4,-189 81,-189 81,4 -4,4"/>
<text text-anchor="middle" x="38.5" y="-9.2" font-family="Times,serif" font-size="16.00" fill="grey">FT(M2)</text>
<!-- 0 -->
<g id="node1" class="node">
<title>0</title>
<ellipse fill="#ffffff" stroke="grey" cx="14.5" cy="-170.5" rx="14.5" ry="14.5"/>
<text text-anchor="middle" x="14.5" y="-166.8" font-family="Times,serif" font-size="14.00">0</text>
</g>
<!-- 0&#45;&gt;0 -->
<g id="edge1" class="edge">
<title>0&#45;&gt;0</title>
<path fill="none" stroke="grey" d="M25.49,-180.2C35.81,-185.23 47,-182 47,-170.5 47,-161.52 40.17,-157.58 32.26,-158.68"/>
<polygon fill="grey" stroke="grey" points="31.44,-156.37 25.49,-160.8 32.9,-161.05 31.44,-156.37"/>
</g>
<!-- 1 -->
<g id="node2" class="node">
<title>1</title>
<ellipse fill="#ffffff" stroke="grey" cx="14.5" cy="-105.5" rx="14.5" ry="14.5"/>
<text text-anchor="middle" x="14.5" y="-101.8" font-family="Times,serif" font-size="14.00">1</text>
</g>
<!-- 0&#45;&gt;1 -->
<g id="edge2" class="edge">
<title>0&#45;&gt;1</title>
<path fill="none" stroke="grey" d="M9,-157.05C7.66,-148.17 7.4,-136.04 8.21,-125.89"/>
<polygon fill="grey" stroke="grey" points="10.65,-126.15 9,-118.92 5.78,-125.6 10.65,-126.15"/>
</g>
<!-- 2 -->
<g id="node3" class="node">
<title>2</title>
<ellipse fill="#ffffff" stroke="grey" cx="44.5" cy="-40.5" rx="14.5" ry="14.5"/>
<text text-anchor="middle" x="44.5" y="-36.8" font-family="Times,serif" font-size="14.00">2</text>
</g>
<!-- 0&#45;&gt;2 -->
<g id="edge3" class="edge">
<title>0&#45;&gt;2</title>
<path fill="none" stroke="grey" d="M25.55,-160.64C35.8,-151.65 50.36,-136.72 56.5,-120 63.59,-100.7 58.34,-77.24 52.73,-61.02"/>
<polygon fill="grey" stroke="grey" points="54.9,-59.83 50.17,-54.12 50.31,-61.53 54.9,-59.83"/>
</g>
<!-- 1&#45;&gt;0 -->
<g id="edge4" class="edge">
<title>1&#45;&gt;0</title>
<path fill="none" stroke="grey" d="M20,-118.92C21.34,-127.8 21.6,-139.93 20.79,-150.08"/>
<polygon fill="grey" stroke="grey" points="18.35,-149.82 20,-157.05 23.22,-150.37 18.35,-149.82"/>
</g>
<!-- 1&#45;&gt;1 -->
<g id="edge5" class="edge">
<title>1&#45;&gt;1</title>
<path fill="none" stroke="grey" d="M25.49,-115.2C35.81,-120.23 47,-117 47,-105.5 47,-96.52 40.17,-92.58 32.26,-93.68"/>
<polygon fill="grey" stroke="grey" points="31.44,-91.37 25.49,-95.8 32.9,-96.05 31.44,-91.37"/>
</g>
<!-- 1&#45;&gt;2 -->
<g id="edge6" class="edge">
<title>1&#45;&gt;2</title>
<path fill="none" stroke="grey" d="M20.43,-92.05C24.74,-82.99 30.66,-70.56 35.55,-60.3"/>
<polygon fill="grey" stroke="grey" points="37.79,-61.29 38.59,-53.92 33.36,-59.19 37.79,-61.29"/>
</g>
<!-- 2&#45;&gt;2 -->
<g id="edge7" class="edge">
<title>2&#45;&gt;2</title>
<path fill="none" stroke="grey" d="M55.49,-50.2C65.81,-55.23 77,-52 77,-40.5 77,-31.52 70.17,-27.58 62.26,-28.68"/>
<polygon fill="grey" stroke="grey" points="61.44,-26.37 55.49,-30.8 62.9,-31.05 61.44,-26.37"/>
</g>
</g>
</svg>
