<?xml version="1.0" encoding="UTF-8" standalone="no"?>
<!DOCTYPE svg PUBLIC "-//W3C//DTD SVG 1.1//EN"
 "http://www.w3.org/Graphics/SVG/1.1/DTD/svg11.dtd">
<!-- Generated by graphviz version 2.43.0 (0)
 -->
<!-- Title: G Pages: 1 -->
<svg width="149pt" height="116pt"
 viewBox="0.00 0.00 148.71 115.86" xmlns="http://www.w3.org/2000/svg" xmlns:xlink="http://www.w3.org/1999/xlink">
<g id="graph0" class="graph" transform="scale(1 1) rotate(0) translate(4 111.86)">
<title>G</title>
<polygon fill="transparent" stroke="transparent" points="-4,4 -4,-111.86 144.71,-111.86 144.71,4 -4,4"/>
<text text-anchor="middle" x="70.36" y="-9.2" font-family="Times,serif" font-size="16.00" fill="grey">G</text>
<!-- 0 -->
<g id="node1" class="node">
<title>0</title>
<ellipse fill="#ffffff" stroke="grey" cx="14.5" cy="-48.64" rx="14.5" ry="14.5"/>
<text text-anchor="middle" x="14.5" y="-44.94" font-family="Times,serif" font-size="14.00">0</text>
</g>
<!-- 2 -->
<g id="node3" class="node">
<title>2</title>
<ellipse fill="#ffffff" stroke="grey" cx="62.17" cy="-56.35" rx="14.5" ry="14.5"/>
<text text-anchor="middle" x="62.17" y="-52.65" font-family="Times,serif" font-size="14.00">2</text>
</g>
<!-- 0&#45;&gt;2 -->
<g id="edge1" class="edge">
<title>0&#45;&gt;2</title>
<path fill="none" stroke="grey" d="M29.06,-51C32.76,-51.6 36.81,-52.25 40.76,-52.89"/>
<polygon fill="grey" stroke="grey" points="40.39,-55.31 47.7,-54.01 41.18,-50.48 40.39,-55.31"/>
</g>
<!-- 3 -->
<g id="node4" class="node">
<title>3</title>
<ellipse fill="#ffffff" stroke="grey" cx="31.05" cy="-93.36" rx="14.5" ry="14.5"/>
<text text-anchor="middle" x="31.05" y="-89.66" font-family="Times,serif" font-size="14.00">3</text>
</g>
<!-- 0&#45;&gt;3 -->
<g id="edge2" class="edge">
<title>0&#45;&gt;3</title>
<path fill="none" stroke="grey" d="M13.37,-63.22C14.36,-67.48 15.89,-72.17 17.7,-76.55"/>
<polygon fill="grey" stroke="grey" points="15.57,-77.77 20.73,-83.09 20.01,-75.71 15.57,-77.77"/>
</g>
<!-- 1 -->
<g id="node2" class="node">
<title>1</title>
<ellipse fill="#ffffff" stroke="grey" cx="108.21" cy="-40.5" rx="14.5" ry="14.5"/>
<text text-anchor="middle" x="108.21" y="-36.8" font-family="Times,serif" font-size="14.00">1</text>
</g>
<!-- 1&#45;&gt;1 -->
<g id="edge3" class="edge">
<title>1&#45;&gt;1</title>
<path fill="none" stroke="grey" d="M121.57,-46.52C131.16,-48.48 140.71,-46.48 140.71,-40.5 140.71,-36.02 135.34,-33.77 128.6,-33.75"/>
<polygon fill="grey" stroke="grey" points="128.28,-31.32 121.57,-34.48 128.78,-36.19 128.28,-31.32"/>
</g>
<!-- 2&#45;&gt;1 -->
<g id="edge4" class="edge">
<title>2&#45;&gt;1</title>
<path fill="none" stroke="grey" d="M76.23,-51.51C79.8,-50.28 83.71,-48.94 87.54,-47.62"/>
<polygon fill="grey" stroke="grey" points="88.41,-49.91 94.23,-45.31 86.82,-45.28 88.41,-49.91"/>
</g>
<!-- 2&#45;&gt;3 -->
<g id="edge5" class="edge">
<title>2&#45;&gt;3</title>
<path fill="none" stroke="grey" d="M52.66,-67.66C50.25,-70.53 47.61,-73.67 45.02,-76.74"/>
<polygon fill="grey" stroke="grey" points="43.13,-75.19 40.5,-82.12 46.88,-78.34 43.13,-75.19"/>
</g>
<!-- 3&#45;&gt;0 -->
<g id="edge6" class="edge">
<title>3&#45;&gt;0</title>
<path fill="none" stroke="grey" d="M32.19,-78.78C31.19,-74.51 29.66,-69.83 27.85,-65.45"/>
<polygon fill="grey" stroke="grey" points="29.99,-64.23 24.82,-58.91 25.54,-66.29 29.99,-64.23"/>
</g>
</g>
</svg>
