<?xml version="1.0" encoding="UTF-8" standalone="no"?>
<!DOCTYPE svg PUBLIC "-//W3C//DTD SVG 1.1//EN"
 "http://www.w3.org/Graphics/SVG/1.1/DTD/svg11.dtd">
<!-- Generated by graphviz version 2.43.0 (0)
 -->
<!-- Title: G1 Pages: 1 -->
<svg width="140pt" height="127pt"
 viewBox="0.00 0.00 139.60 127.35" xmlns="http://www.w3.org/2000/svg" xmlns:xlink="http://www.w3.org/1999/xlink">
<g id="graph0" class="graph" transform="scale(1 1) rotate(0) translate(4 123.35)">
<title>G1</title>
<polygon fill="transparent" stroke="transparent" points="-4,4 -4,-123.35 135.6,-123.35 135.6,4 -4,4"/>
<text text-anchor="middle" x="65.8" y="-9.2" font-family="Times,serif" font-size="16.00" fill="grey">G1</text>
<!-- 0 -->
<g id="node1" class="node">
<title>0</title>
<ellipse fill="#ffffff" stroke="grey" cx="14.5" cy="-79.8" rx="14.5" ry="14.5"/>
<text text-anchor="middle" x="14.5" y="-76.1" font-family="Times,serif" font-size="14.00">0</text>
</g>
<!-- 2 -->
<g id="node3" class="node">
<title>2</title>
<ellipse fill="#ffffff" stroke="grey" cx="50.31" cy="-40.5" rx="14.5" ry="14.5"/>
<text text-anchor="middle" x="50.31" y="-36.8" font-family="Times,serif" font-size="14.00">2</text>
</g>
<!-- 0&#45;&#45;2 -->
<g id="edge1" class="edge">
<title>0&#45;&#45;2</title>
<path fill="none" stroke="grey" d="M24.29,-69.06C29.34,-63.52 35.49,-56.77 40.54,-51.23"/>
</g>
<!-- 3 -->
<g id="node4" class="node">
<title>3</title>
<ellipse fill="#ffffff" stroke="grey" cx="66.42" cy="-89.77" rx="14.5" ry="14.5"/>
<text text-anchor="middle" x="66.42" y="-86.07" font-family="Times,serif" font-size="14.00">3</text>
</g>
<!-- 0&#45;&#45;3 -->
<g id="edge2" class="edge">
<title>0&#45;&#45;3</title>
<path fill="none" stroke="grey" d="M28.96,-82.58C36.17,-83.96 44.85,-85.62 52.04,-87.01"/>
</g>
<!-- 1 -->
<g id="node2" class="node">
<title>1</title>
<ellipse fill="#ffffff" stroke="grey" cx="117.1" cy="-104.85" rx="14.5" ry="14.5"/>
<text text-anchor="middle" x="117.1" y="-101.15" font-family="Times,serif" font-size="14.00">1</text>
</g>
<!-- 1&#45;&#45;3 -->
<g id="edge3" class="edge">
<title>1&#45;&#45;3</title>
<path fill="none" stroke="grey" d="M102.98,-100.65C95.96,-98.56 87.48,-96.04 80.46,-93.95"/>
</g>
<!-- 4 -->
<g id="node5" class="node">
<title>4</title>
<ellipse fill="#ffffff" stroke="grey" cx="103.43" cy="-53.47" rx="14.5" ry="14.5"/>
<text text-anchor="middle" x="103.43" y="-49.77" font-family="Times,serif" font-size="14.00">4</text>
</g>
<!-- 1&#45;&#45;4 -->
<g id="edge4" class="edge">
<title>1&#45;&#45;4</title>
<path fill="none" stroke="grey" d="M113.36,-90.81C111.44,-83.56 109.09,-74.74 107.16,-67.49"/>
</g>
<!-- 2&#45;&#45;3 -->
<g id="edge5" class="edge">
<title>2&#45;&#45;3</title>
<path fill="none" stroke="grey" d="M54.89,-54.49C57.08,-61.2 59.7,-69.22 61.89,-75.92"/>
</g>
<!-- 2&#45;&#45;4 -->
<g id="edge6" class="edge">
<title>2&#45;&#45;4</title>
<path fill="none" stroke="grey" d="M64.55,-43.98C72.17,-45.84 81.53,-48.12 89.15,-49.99"/>
</g>
<!-- 3&#45;&#45;4 -->
<g id="edge7" class="edge">
<title>3&#45;&#45;4</title>
<path fill="none" stroke="grey" d="M76.93,-79.46C81.97,-74.52 88,-68.61 93.02,-63.68"/>
</g>
</g>
</svg>
