<?xml version="1.0" encoding="UTF-8" standalone="no"?>
<!DOCTYPE svg PUBLIC "-//W3C//DTD SVG 1.1//EN"
 "http://www.w3.org/Graphics/SVG/1.1/DTD/svg11.dtd">
<!-- Generated by graphviz version 2.43.0 (0)
 -->
<!-- Title: G3 Pages: 1 -->
<svg width="92pt" height="152pt"
 viewBox="0.00 0.00 92.45 152.27" xmlns="http://www.w3.org/2000/svg" xmlns:xlink="http://www.w3.org/1999/xlink">
<g id="graph0" class="graph" transform="scale(1 1) rotate(0) translate(4 148.27)">
<title>G3</title>
<polygon fill="transparent" stroke="transparent" points="-4,4 -4,-148.27 88.45,-148.27 88.45,4 -4,4"/>
<text text-anchor="middle" x="42.22" y="-9.2" font-family="Times,serif" font-size="16.00" fill="grey">G3</text>
<!-- 0 -->
<g id="node1" class="node">
<title>0</title>
<ellipse fill="#ffffff" stroke="grey" cx="14.5" cy="-40.5" rx="14.5" ry="14.5"/>
<text text-anchor="middle" x="14.5" y="-36.8" font-family="Times,serif" font-size="14.00">0</text>
</g>
<!-- 1 -->
<g id="node2" class="node">
<title>1</title>
<ellipse fill="#ffffff" stroke="grey" cx="52.13" cy="-74.1" rx="14.5" ry="14.5"/>
<text text-anchor="middle" x="52.13" y="-70.4" font-family="Times,serif" font-size="14.00">1</text>
</g>
<!-- 0&#45;&gt;1 -->
<g id="edge1" class="edge">
<title>0&#45;&gt;1</title>
<path fill="none" stroke="grey" d="M25.59,-50.4C28.83,-53.29 32.45,-56.52 35.94,-59.64"/>
<polygon fill="grey" stroke="grey" points="34.4,-61.55 41.26,-64.38 37.67,-57.9 34.4,-61.55"/>
</g>
<!-- 2 -->
<g id="node3" class="node">
<title>2</title>
<ellipse fill="#ffffff" stroke="grey" cx="15.13" cy="-90.68" rx="14.5" ry="14.5"/>
<text text-anchor="middle" x="15.13" y="-86.98" font-family="Times,serif" font-size="14.00">2</text>
</g>
<!-- 0&#45;&gt;2 -->
<g id="edge2" class="edge">
<title>0&#45;&gt;2</title>
<path fill="none" stroke="grey" d="M14.68,-55.01C14.74,-59.34 14.8,-64.19 14.86,-68.88"/>
<polygon fill="grey" stroke="grey" points="12.41,-69.05 14.95,-76.02 17.31,-68.99 12.41,-69.05"/>
</g>
<!-- 3 -->
<g id="node4" class="node">
<title>3</title>
<ellipse fill="#ffffff" stroke="grey" cx="31.76" cy="-129.77" rx="14.5" ry="14.5"/>
<text text-anchor="middle" x="31.76" y="-126.07" font-family="Times,serif" font-size="14.00">3</text>
</g>
<!-- 1&#45;&gt;3 -->
<g id="edge3" class="edge">
<title>1&#45;&gt;3</title>
<path fill="none" stroke="grey" d="M47.1,-87.86C44.76,-94.23 41.94,-101.95 39.36,-109.01"/>
<polygon fill="grey" stroke="grey" points="36.98,-108.36 36.88,-115.78 41.59,-110.05 36.98,-108.36"/>
</g>
<!-- 4 -->
<g id="node5" class="node">
<title>4</title>
<ellipse fill="#ffffff" stroke="grey" cx="69.95" cy="-112.87" rx="14.5" ry="14.5"/>
<text text-anchor="middle" x="69.95" y="-109.17" font-family="Times,serif" font-size="14.00">4</text>
</g>
<!-- 1&#45;&gt;4 -->
<g id="edge4" class="edge">
<title>1&#45;&gt;4</title>
<path fill="none" stroke="grey" d="M58.36,-87.66C59.14,-89.34 59.94,-91.09 60.74,-92.84"/>
<polygon fill="grey" stroke="grey" points="58.66,-94.18 63.81,-99.51 63.11,-92.13 58.66,-94.18"/>
</g>
<!-- 2&#45;&gt;1 -->
<g id="edge5" class="edge">
<title>2&#45;&gt;1</title>
<path fill="none" stroke="grey" d="M28.49,-84.69C29.63,-84.18 30.8,-83.66 31.97,-83.13"/>
<polygon fill="grey" stroke="grey" points="33.28,-85.23 38.67,-80.13 31.28,-80.76 33.28,-85.23"/>
</g>
<!-- 2&#45;&gt;4 -->
<g id="edge6" class="edge">
<title>2&#45;&gt;4</title>
<path fill="none" stroke="grey" d="M28.68,-96.16C34.96,-98.71 42.55,-101.78 49.5,-104.6"/>
<polygon fill="grey" stroke="grey" points="48.76,-106.94 56.17,-107.3 50.6,-102.4 48.76,-106.94"/>
</g>
<!-- 3&#45;&gt;2 -->
<g id="edge7" class="edge">
<title>3&#45;&gt;2</title>
<path fill="none" stroke="grey" d="M25.94,-116.1C25.22,-114.4 24.47,-112.64 23.72,-110.87"/>
<polygon fill="grey" stroke="grey" points="25.85,-109.63 20.86,-104.14 21.34,-111.54 25.85,-109.63"/>
</g>
<!-- 3&#45;&gt;4 -->
<g id="edge8" class="edge">
<title>3&#45;&gt;4</title>
<path fill="none" stroke="grey" d="M45.11,-123.86C46.73,-123.14 48.41,-122.4 50.1,-121.65"/>
<polygon fill="grey" stroke="grey" points="51.12,-123.88 56.53,-118.81 49.14,-119.4 51.12,-123.88"/>
</g>
</g>
</svg>
