<?xml version="1.0" encoding="UTF-8" standalone="no"?>
<!DOCTYPE svg PUBLIC "-//W3C//DTD SVG 1.1//EN"
 "http://www.w3.org/Graphics/SVG/1.1/DTD/svg11.dtd">
<!-- Generated by graphviz version 2.43.0 (0)
 -->
<!-- Title: G4 Pages: 1 -->
<svg width="92pt" height="152pt"
 viewBox="0.00 0.00 92.45 152.27" xmlns="http://www.w3.org/2000/svg" xmlns:xlink="http://www.w3.org/1999/xlink">
<g id="graph0" class="graph" transform="scale(1 1) rotate(0) translate(4 148.27)">
<title>G4</title>
<polygon fill="transparent" stroke="transparent" points="-4,4 -4,-148.27 88.45,-148.27 88.45,4 -4,4"/>
<text text-anchor="middle" x="42.22" y="-9.2" font-family="Times,serif" font-size="16.00" fill="grey">G4</text>
<!-- 0 -->
<g id="node1" class="node">
<title>0</title>
<ellipse fill="#ffffff" stroke="grey" cx="14.5" cy="-40.5" rx="14.5" ry="14.5"/>
<text text-anchor="middle" x="14.5" y="-36.8" font-family="Times,serif" font-size="14.00">0</text>
</g>
<!-- 1 -->
<g id="node2" class="node">
<title>1</title>
<ellipse fill="#ffffff" stroke="grey" cx="52.13" cy="-74.1" rx="14.5" ry="14.5"/>
<text text-anchor="middle" x="52.13" y="-70.4" font-family="Times,serif" font-size="14.00">1</text>
</g>
<!-- 0&#45;&gt;1 -->
<g id="edge1" class="edge">
<title>0&#45;&gt;1</title>
<path fill="none" stroke="grey" d="M25.59,-50.4C28.83,-53.29 32.45,-56.52 35.94,-59.64"/>
<polygon fill="grey" stroke="grey" points="34.4,-61.55 41.26,-64.38 37.67,-57.9 34.4,-61.55"/>
</g>
<!-- 2 -->
<g id="node3" class="node">
<title>2</title>
<ellipse fill="#ffffff" stroke="grey" cx="15.13" cy="-90.68" rx="14.5" ry="14.5"/>
<text text-anchor="middle" x="15.13" y="-86.98" font-family="Times,serif" font-size="14.00">2</text>
</g>
<!-- 0&#45;&gt;2 -->
<g id="edge2" class="edge">
<title>0&#45;&gt;2</title>
<path fill="none" stroke="grey" d="M14.68,-55.01C14.74,-59.34 14.8,-64.19 14.86,-68.88"/>
<polygon fill="grey" stroke="grey" points="12.41,-69.05 14.95,-76.02 17.31,-68.99 12.41,-69.05"/>
</g>
<!-- 1&#45;&gt;2 -->
<g id="edge3" class="edge">
<title>1&#45;&gt;2</title>
<path fill="none" stroke="grey" d="M37.41,-73.7C35.42,-74.34 33.37,-75.13 31.36,-76.01"/>
<polygon fill="grey" stroke="grey" points="29.92,-73.99 24.79,-79.34 32.14,-78.36 29.92,-73.99"/>
</g>
<!-- 3 -->
<g id="node4" class="node">
<title>3</title>
<ellipse fill="#ffffff" stroke="grey" cx="31.76" cy="-129.77" rx="14.5" ry="14.5"/>
<text text-anchor="middle" x="31.76" y="-126.07" font-family="Times,serif" font-size="14.00">3</text>
</g>
<!-- 1&#45;&gt;3 -->
<g id="edge4" class="edge">
<title>1&#45;&gt;3</title>
<path fill="none" stroke="grey" d="M47.1,-87.86C44.76,-94.23 41.94,-101.95 39.36,-109.01"/>
<polygon fill="grey" stroke="grey" points="36.98,-108.36 36.88,-115.78 41.59,-110.05 36.98,-108.36"/>
</g>
<!-- 4 -->
<g id="node5" class="node">
<title>4</title>
<ellipse fill="#ffffff" stroke="grey" cx="69.95" cy="-112.87" rx="14.5" ry="14.5"/>
<text text-anchor="middle" x="69.95" y="-109.17" font-family="Times,serif" font-size="14.00">4</text>
</g>
<!-- 1&#45;&gt;4 -->
<g id="edge5" class="edge">
<title>1&#45;&gt;4</title>
<path fill="none" stroke="grey" d="M58.36,-87.66C59.14,-89.34 59.94,-91.09 60.74,-92.84"/>
<polygon fill="grey" stroke="grey" points="58.66,-94.18 63.81,-99.51 63.11,-92.13 58.66,-94.18"/>
</g>
<!-- 2&#45;&gt;1 -->
<g id="edge6" class="edge">
<title>2&#45;&gt;1</title>
<path fill="none" stroke="grey" d="M29.86,-91.07C31.85,-90.43 33.9,-89.64 35.91,-88.76"/>
<polygon fill="grey" stroke="grey" points="37.34,-90.78 42.48,-85.43 35.13,-86.41 37.34,-90.78"/>
</g>
<!-- 2&#45;&gt;2 -->
<g id="edge7" class="edge">
<title>2&#45;&gt;2</title>
<path fill="none" stroke="grey" d="M28.48,-96.7C38.08,-98.66 47.63,-96.65 47.63,-90.68 47.63,-86.19 42.26,-83.94 35.52,-83.93"/>
<polygon fill="grey" stroke="grey" points="35.2,-81.5 28.48,-84.65 35.7,-86.37 35.2,-81.5"/>
</g>
<!-- 2&#45;&gt;4 -->
<g id="edge8" class="edge">
<title>2&#45;&gt;4</title>
<path fill="none" stroke="grey" d="M28.68,-96.16C34.96,-98.71 42.55,-101.78 49.5,-104.6"/>
<polygon fill="grey" stroke="grey" points="48.76,-106.94 56.17,-107.3 50.6,-102.4 48.76,-106.94"/>
</g>
<!-- 3&#45;&gt;2 -->
<g id="edge9" class="edge">
<title>3&#45;&gt;2</title>
<path fill="none" stroke="grey" d="M25.94,-116.1C25.22,-114.4 24.47,-112.64 23.72,-110.87"/>
<polygon fill="grey" stroke="grey" points="25.85,-109.63 20.86,-104.14 21.34,-111.54 25.85,-109.63"/>
</g>
<!-- 3&#45;&gt;4 -->
<g id="edge10" class="edge">
<title>3&#45;&gt;4</title>
<path fill="none" stroke="grey" d="M46.4,-130.21C48.84,-129.45 51.38,-128.48 53.85,-127.37"/>
<polygon fill="grey" stroke="grey" points="55,-129.54 60.12,-124.18 52.77,-125.17 55,-129.54"/>
</g>
<!-- 4&#45;&gt;3 -->
<g id="edge11" class="edge">
<title>4&#45;&gt;3</title>
<path fill="none" stroke="grey" d="M55.3,-112.43C52.86,-113.19 50.32,-114.16 47.85,-115.27"/>
<polygon fill="grey" stroke="grey" points="46.71,-113.1 41.58,-118.46 48.93,-117.47 46.71,-113.1"/>
</g>
</g>
</svg>
