<?xml version="1.0" encoding="UTF-8" standalone="no"?>
<!DOCTYPE svg PUBLIC "-//W3C//DTD SVG 1.1//EN"
 "http://www.w3.org/Graphics/SVG/1.1/DTD/svg11.dtd">
<!-- Generated by graphviz version 2.43.0 (0)
 -->
<!-- Title: G5 Pages: 1 -->
<svg width="119pt" height="148pt"
 viewBox="0.00 0.00 118.91 148.25" xmlns="http://www.w3.org/2000/svg" xmlns:xlink="http://www.w3.org/1999/xlink">
<g id="graph0" class="graph" transform="scale(1 1) rotate(0) translate(4 144.25)">
<title>G5</title>
<polygon fill="transparent" stroke="transparent" points="-4,4 -4,-144.25 114.91,-144.25 114.91,4 -4,4"/>
<text text-anchor="middle" x="55.45" y="-9.2" font-family="Times,serif" font-size="16.00" fill="grey">G5</text>
<!-- 0 -->
<g id="node1" class="node">
<title>0</title>
<ellipse fill="#ffffff" stroke="grey" cx="14.5" cy="-53.73" rx="14.5" ry="14.5"/>
<text text-anchor="middle" x="14.5" y="-50.03" font-family="Times,serif" font-size="14.00">0</text>
</g>
<!-- 1 -->
<g id="node2" class="node">
<title>1</title>
<ellipse fill="#ffffff" stroke="grey" cx="96.41" cy="-77.5" rx="14.5" ry="14.5"/>
<text text-anchor="middle" x="96.41" y="-73.8" font-family="Times,serif" font-size="14.00">1</text>
</g>
<!-- 0&#45;&gt;1 -->
<g id="edge1" class="edge">
<title>0&#45;&gt;1</title>
<path fill="none" stroke="grey" d="M28.77,-57.87C41.69,-61.62 60.88,-67.19 75.53,-71.44"/>
<polygon fill="grey" stroke="grey" points="74.9,-73.81 82.3,-73.41 76.26,-69.11 74.9,-73.81"/>
</g>
<!-- 2 -->
<g id="node3" class="node">
<title>2</title>
<ellipse fill="#ffffff" stroke="grey" cx="67.66" cy="-40.5" rx="14.5" ry="14.5"/>
<text text-anchor="middle" x="67.66" y="-36.8" font-family="Times,serif" font-size="14.00">2</text>
</g>
<!-- 0&#45;&gt;2 -->
<g id="edge2" class="edge">
<title>0&#45;&gt;2</title>
<path fill="none" stroke="grey" d="M28.75,-50.19C34.11,-48.85 40.33,-47.3 46.21,-45.84"/>
<polygon fill="grey" stroke="grey" points="47.18,-48.12 53.38,-44.06 45.99,-43.37 47.18,-48.12"/>
</g>
<!-- 1&#45;&gt;2 -->
<g id="edge3" class="edge">
<title>1&#45;&gt;2</title>
<path fill="none" stroke="grey" d="M87.31,-65.8C85.28,-63.18 83.09,-60.36 80.92,-57.57"/>
<polygon fill="grey" stroke="grey" points="82.83,-56.03 76.6,-52.01 78.96,-59.04 82.83,-56.03"/>
</g>
<!-- 3 -->
<g id="node4" class="node">
<title>3</title>
<ellipse fill="#ffffff" stroke="grey" cx="70.44" cy="-125.75" rx="14.5" ry="14.5"/>
<text text-anchor="middle" x="70.44" y="-122.05" font-family="Times,serif" font-size="14.00">3</text>
</g>
<!-- 1&#45;&gt;3 -->
<g id="edge4" class="edge">
<title>1&#45;&gt;3</title>
<path fill="none" stroke="grey" d="M84.94,-86.4C81.25,-91.49 77.45,-98.05 74.49,-104.36"/>
<polygon fill="grey" stroke="grey" points="72.13,-103.64 71.64,-111.04 76.64,-105.56 72.13,-103.64"/>
</g>
<!-- 3&#45;&gt;1 -->
<g id="edge5" class="edge">
<title>3&#45;&gt;1</title>
<path fill="none" stroke="grey" d="M81.9,-116.86C85.6,-111.77 89.4,-105.2 92.36,-98.89"/>
<polygon fill="grey" stroke="grey" points="94.71,-99.61 95.2,-92.21 90.21,-97.69 94.71,-99.61"/>
</g>
<!-- 3&#45;&gt;2 -->
<g id="edge6" class="edge">
<title>3&#45;&gt;2</title>
<path fill="none" stroke="grey" d="M69.96,-110.9C69.52,-97.45 68.87,-77.47 68.37,-62.23"/>
<polygon fill="grey" stroke="grey" points="70.82,-62.1 68.14,-55.18 65.92,-62.26 70.82,-62.1"/>
</g>
<!-- 3&#45;&gt;3 -->
<g id="edge7" class="edge">
<title>3&#45;&gt;3</title>
<path fill="none" stroke="grey" d="M83.8,-131.77C93.39,-133.73 102.94,-131.73 102.94,-125.75 102.94,-121.27 97.57,-119.02 90.84,-119"/>
<polygon fill="grey" stroke="grey" points="90.51,-116.57 83.8,-119.73 91.01,-121.44 90.51,-116.57"/>
</g>
</g>
</svg>
