<?xml version="1.0" encoding="UTF-8" standalone="no"?>
<!DOCTYPE svg PUBLIC "-//W3C//DTD SVG 1.1//EN"
 "http://www.w3.org/Graphics/SVG/1.1/DTD/svg11.dtd">
<!-- Generated by graphviz version 2.43.0 (0)
 -->
<!-- Title: G6 Pages: 1 -->
<svg width="119pt" height="148pt"
 viewBox="0.00 0.00 118.91 148.25" xmlns="http://www.w3.org/2000/svg" xmlns:xlink="http://www.w3.org/1999/xlink">
<g id="graph0" class="graph" transform="scale(1 1) rotate(0) translate(4 144.25)">
<title>G6</title>
<polygon fill="transparent" stroke="transparent" points="-4,4 -4,-144.25 114.91,-144.25 114.91,4 -4,4"/>
<text text-anchor="middle" x="55.45" y="-9.2" font-family="Times,serif" font-size="16.00" fill="grey">G6</text>
<!-- 0 -->
<g id="node1" class="node">
<title>0</title>
<ellipse fill="#ffffff" stroke="grey" cx="14.5" cy="-53.73" rx="14.5" ry="14.5"/>
<text text-anchor="middle" x="14.5" y="-50.03" font-family="Times,serif" font-size="14.00">0</text>
</g>
<!-- 1 -->
<g id="node2" class="node">
<title>1</title>
<ellipse fill="#ffffff" stroke="grey" cx="96.41" cy="-77.5" rx="14.5" ry="14.5"/>
<text text-anchor="middle" x="96.41" y="-73.8" font-family="Times,serif" font-size="14.00">1</text>
</g>
<!-- 0&#45;&#45;1 -->
<g id="edge1" class="edge">
<title>0&#45;&#45;1</title>
<path fill="none" stroke="grey" d="M28.77,-57.87C43.8,-62.24 67.33,-69.07 82.3,-73.41"/>
</g>
<!-- 2 -->
<g id="node3" class="node">
<title>2</title>
<ellipse fill="#ffffff" stroke="grey" cx="67.66" cy="-40.5" rx="14.5" ry="14.5"/>
<text text-anchor="middle" x="67.66" y="-36.8" font-family="Times,serif" font-size="14.00">2</text>
</g>
<!-- 0&#45;&#45;2 -->
<g id="edge2" class="edge">
<title>0&#45;&#45;2</title>
<path fill="none" stroke="grey" d="M28.75,-50.19C36.37,-48.29 45.74,-45.96 53.38,-44.06"/>
</g>
<!-- 1&#45;&#45;2 -->
<g id="edge3" class="edge">
<title>1&#45;&#45;2</title>
<path fill="none" stroke="grey" d="M87.31,-65.8C83.89,-61.39 80.01,-56.39 76.6,-52.01"/>
</g>
<!-- 3 -->
<g id="node4" class="node">
<title>3</title>
<ellipse fill="#ffffff" stroke="grey" cx="70.44" cy="-125.75" rx="14.5" ry="14.5"/>
<text text-anchor="middle" x="70.44" y="-122.05" font-family="Times,serif" font-size="14.00">3</text>
</g>
<!-- 1&#45;&#45;3 -->
<g id="edge4" class="edge">
<title>1&#45;&#45;3</title>
<path fill="none" stroke="grey" d="M89.45,-90.43C85.72,-97.35 81.15,-105.86 77.42,-112.78"/>
</g>
<!-- 2&#45;&#45;3 -->
<g id="edge5" class="edge">
<title>2&#45;&#45;3</title>
<path fill="none" stroke="grey" d="M68.15,-55.35C68.66,-71 69.46,-95.49 69.96,-111.07"/>
</g>
<!-- 3&#45;&#45;3 -->
<g id="edge6" class="edge">
<title>3&#45;&#45;3</title>
<path fill="none" stroke="grey" d="M83.8,-131.77C93.39,-133.73 102.94,-131.73 102.94,-125.75 102.94,-119.77 93.39,-117.76 83.8,-119.73"/>
</g>
</g>
</svg>
