<?xml version="1.0" encoding="UTF-8" standalone="no"?>
<!DOCTYPE svg PUBLIC "-//W3C//DTD SVG 1.1//EN"
 "http://www.w3.org/Graphics/SVG/1.1/DTD/svg11.dtd">
<!-- Generated by graphviz version 2.43.0 (0)
 -->
<!-- Title: G_exo1 Pages: 1 -->
<svg width="157pt" height="189pt"
 viewBox="0.00 0.00 157.19 188.70" xmlns="http://www.w3.org/2000/svg" xmlns:xlink="http://www.w3.org/1999/xlink">
<g id="graph0" class="graph" transform="scale(1 1) rotate(0) translate(4 184.7)">
<title>G_exo1</title>
<polygon fill="transparent" stroke="transparent" points="-4,4 -4,-184.7 153.19,-184.7 153.19,4 -4,4"/>
<text text-anchor="middle" x="74.6" y="-9.2" font-family="Times,serif" font-size="16.00" fill="grey">G_exo1</text>
<!-- 0 -->
<g id="node1" class="node">
<title>0</title>
<ellipse fill="#5cff00" stroke="grey" cx="67.05" cy="-90.07" rx="14.5" ry="14.5"/>
<text text-anchor="middle" x="67.05" y="-86.37" font-family="Times,serif" font-size="14.00">0</text>
</g>
<!-- 1 -->
<g id="node2" class="node">
<title>1</title>
<ellipse fill="#ffffff" stroke="grey" cx="96.67" cy="-133.07" rx="14.5" ry="14.5"/>
<text text-anchor="middle" x="96.67" y="-129.37" font-family="Times,serif" font-size="14.00">1</text>
</g>
<!-- 0&#45;&#45;1 -->
<g id="edge1" class="edge">
<title>0&#45;&#45;1</title>
<path fill="none" stroke="grey" d="M75.46,-102.28C79.5,-108.13 84.32,-115.13 88.34,-120.98"/>
</g>
<!-- 2 -->
<g id="node3" class="node">
<title>2</title>
<ellipse fill="#008fff" stroke="grey" cx="46.65" cy="-133.24" rx="14.5" ry="14.5"/>
<text text-anchor="middle" x="46.65" y="-129.54" font-family="Times,serif" font-size="14.00">2</text>
</g>
<!-- 0&#45;&#45;2 -->
<g id="edge2" class="edge">
<title>0&#45;&#45;2</title>
<path fill="none" stroke="grey" d="M60.82,-103.26C58.34,-108.51 55.48,-114.56 52.98,-119.83"/>
</g>
<!-- 4 -->
<g id="node5" class="node">
<title>4</title>
<ellipse fill="#ff00bf" stroke="grey" cx="82.97" cy="-40.5" rx="14.5" ry="14.5"/>
<text text-anchor="middle" x="82.97" y="-36.8" font-family="Times,serif" font-size="14.00">4</text>
</g>
<!-- 0&#45;&#45;4 -->
<g id="edge3" class="edge">
<title>0&#45;&#45;4</title>
<path fill="none" stroke="grey" d="M71.49,-76.26C73.66,-69.5 76.27,-61.37 78.45,-54.58"/>
</g>
<!-- 5 -->
<g id="node6" class="node">
<title>5</title>
<ellipse fill="#ffffff" stroke="grey" cx="14.5" cy="-96.23" rx="14.5" ry="14.5"/>
<text text-anchor="middle" x="14.5" y="-92.53" font-family="Times,serif" font-size="14.00">5</text>
</g>
<!-- 0&#45;&#45;5 -->
<g id="edge4" class="edge">
<title>0&#45;&#45;5</title>
<path fill="none" stroke="grey" d="M52.42,-91.79C45.13,-92.64 36.34,-93.67 29.06,-94.53"/>
</g>
<!-- 1&#45;&#45;2 -->
<g id="edge5" class="edge">
<title>1&#45;&#45;2</title>
<path fill="none" stroke="grey" d="M81.93,-133.12C75.47,-133.14 67.92,-133.16 61.45,-133.19"/>
</g>
<!-- 3 -->
<g id="node4" class="node">
<title>3</title>
<ellipse fill="#ffffff" stroke="grey" cx="134.69" cy="-166.2" rx="14.5" ry="14.5"/>
<text text-anchor="middle" x="134.69" y="-162.5" font-family="Times,serif" font-size="14.00">3</text>
</g>
<!-- 1&#45;&#45;3 -->
<g id="edge6" class="edge">
<title>1&#45;&#45;3</title>
<path fill="none" stroke="grey" d="M107.87,-142.83C112.86,-147.18 118.73,-152.29 123.7,-156.62"/>
</g>
<!-- 2&#45;&#45;5 -->
<g id="edge7" class="edge">
<title>2&#45;&#45;5</title>
<path fill="none" stroke="grey" d="M36.83,-121.93C32.77,-117.26 28.07,-111.86 24.04,-107.21"/>
</g>
</g>
</svg>
