<?xml version="1.0" encoding="UTF-8" standalone="no"?>
<!DOCTYPE svg PUBLIC "-//W3C//DTD SVG 1.1//EN"
 "http://www.w3.org/Graphics/SVG/1.1/DTD/svg11.dtd">
<!-- Generated by graphviz version 2.43.0 (0)
 -->
<!-- Title: Gcirco Pages: 1 -->
<svg width="136pt" height="106pt"
 viewBox="0.00 0.00 136.25 105.73" xmlns="http://www.w3.org/2000/svg" xmlns:xlink="http://www.w3.org/1999/xlink">
<g id="graph0" class="graph" transform="scale(1 1) rotate(0) translate(4 101.73)">
<title>Gcirco</title>
<polygon fill="transparent" stroke="transparent" points="-4,4 -4,-101.73 132.25,-101.73 132.25,4 -4,4"/>
<text text-anchor="middle" x="64.13" y="-9.2" font-family="Times,serif" font-size="16.00" fill="grey">Gcirco</text>
<!-- 0 -->
<g id="node1" class="node">
<title>0</title>
<ellipse fill="#ffffff" stroke="grey" cx="14.5" cy="-83.23" rx="14.5" ry="14.5"/>
<text text-anchor="middle" x="14.5" y="-79.53" font-family="Times,serif" font-size="14.00">0</text>
</g>
<!-- 2 -->
<g id="node3" class="node">
<title>2</title>
<ellipse fill="#ffffff" stroke="grey" cx="51.5" cy="-61.86" rx="14.5" ry="14.5"/>
<text text-anchor="middle" x="51.5" y="-58.16" font-family="Times,serif" font-size="14.00">2</text>
</g>
<!-- 0&#45;&gt;2 -->
<g id="edge1" class="edge">
<title>0&#45;&gt;2</title>
<path fill="none" stroke="grey" d="M27.44,-75.76C29.05,-74.83 30.71,-73.87 32.39,-72.9"/>
<polygon fill="grey" stroke="grey" points="33.92,-74.85 38.76,-69.22 31.47,-70.6 33.92,-74.85"/>
</g>
<!-- 3 -->
<g id="node4" class="node">
<title>3</title>
<ellipse fill="#ffffff" stroke="grey" cx="14.5" cy="-40.5" rx="14.5" ry="14.5"/>
<text text-anchor="middle" x="14.5" y="-36.8" font-family="Times,serif" font-size="14.00">3</text>
</g>
<!-- 0&#45;&gt;3 -->
<g id="edge2" class="edge">
<title>0&#45;&gt;3</title>
<path fill="none" stroke="grey" d="M20.83,-69.71C21.14,-66.93 21.28,-63.94 21.24,-60.98"/>
<polygon fill="grey" stroke="grey" points="23.68,-60.62 20.8,-53.79 18.79,-60.92 23.68,-60.62"/>
</g>
<!-- 1 -->
<g id="node2" class="node">
<title>1</title>
<ellipse fill="#ffffff" stroke="grey" cx="95.75" cy="-61.86" rx="14.5" ry="14.5"/>
<text text-anchor="middle" x="95.75" y="-58.16" font-family="Times,serif" font-size="14.00">1</text>
</g>
<!-- 1&#45;&gt;1 -->
<g id="edge3" class="edge">
<title>1&#45;&gt;1</title>
<path fill="none" stroke="grey" d="M109.11,-67.89C118.7,-69.85 128.25,-67.84 128.25,-61.86 128.25,-57.38 122.88,-55.13 116.14,-55.11"/>
<polygon fill="grey" stroke="grey" points="115.82,-52.68 109.11,-55.84 116.32,-57.56 115.82,-52.68"/>
</g>
<!-- 2&#45;&gt;1 -->
<g id="edge4" class="edge">
<title>2&#45;&gt;1</title>
<path fill="none" stroke="grey" d="M66.48,-61.86C68.84,-61.86 71.32,-61.86 73.79,-61.86"/>
<polygon fill="grey" stroke="grey" points="74.09,-64.31 81.09,-61.86 74.09,-59.41 74.09,-64.31"/>
</g>
<!-- 2&#45;&gt;3 -->
<g id="edge5" class="edge">
<title>2&#45;&gt;3</title>
<path fill="none" stroke="grey" d="M38.56,-54.39C36.96,-53.47 35.29,-52.5 33.62,-51.54"/>
<polygon fill="grey" stroke="grey" points="34.53,-49.24 27.25,-47.86 32.08,-53.48 34.53,-49.24"/>
</g>
<!-- 3&#45;&gt;0 -->
<g id="edge6" class="edge">
<title>3&#45;&gt;0</title>
<path fill="none" stroke="grey" d="M8.17,-54.02C7.86,-56.8 7.72,-59.79 7.76,-62.75"/>
<polygon fill="grey" stroke="grey" points="5.32,-63.11 8.2,-69.94 10.21,-62.81 5.32,-63.11"/>
</g>
</g>
</svg>
