<?xml version="1.0" encoding="UTF-8" standalone="no"?>
<!DOCTYPE svg PUBLIC "-//W3C//DTD SVG 1.1//EN"
 "http://www.w3.org/Graphics/SVG/1.1/DTD/svg11.dtd">
<!-- Generated by graphviz version 2.43.0 (0)
 -->
<!-- Title: Gdot Pages: 1 -->
<svg width="102pt" height="193pt"
 viewBox="0.00 0.00 102.00 193.00" xmlns="http://www.w3.org/2000/svg" xmlns:xlink="http://www.w3.org/1999/xlink">
<g id="graph0" class="graph" transform="scale(1 1) rotate(0) translate(4 189)">
<title>Gdot</title>
<polygon fill="transparent" stroke="transparent" points="-4,4 -4,-189 98,-189 98,4 -4,4"/>
<text text-anchor="middle" x="47" y="-9.2" font-family="Times,serif" font-size="16.00" fill="grey">Gdot</text>
<!-- 0 -->
<g id="node1" class="node">
<title>0</title>
<ellipse fill="#ffffff" stroke="grey" cx="79.5" cy="-170.5" rx="14.5" ry="14.5"/>
<text text-anchor="middle" x="79.5" y="-166.8" font-family="Times,serif" font-size="14.00">0</text>
</g>
<!-- 2 -->
<g id="node3" class="node">
<title>2</title>
<ellipse fill="#ffffff" stroke="grey" cx="27.5" cy="-105.5" rx="14.5" ry="14.5"/>
<text text-anchor="middle" x="27.5" y="-101.8" font-family="Times,serif" font-size="14.00">2</text>
</g>
<!-- 0&#45;&gt;2 -->
<g id="edge1" class="edge">
<title>0&#45;&gt;2</title>
<path fill="none" stroke="grey" d="M70.68,-158.81C62.59,-149.01 50.47,-134.33 41.13,-123.02"/>
<polygon fill="grey" stroke="grey" points="42.88,-121.29 36.54,-117.45 39.11,-124.41 42.88,-121.29"/>
</g>
<!-- 3 -->
<g id="node4" class="node">
<title>3</title>
<ellipse fill="#ffffff" stroke="grey" cx="79.5" cy="-40.5" rx="14.5" ry="14.5"/>
<text text-anchor="middle" x="79.5" y="-36.8" font-family="Times,serif" font-size="14.00">3</text>
</g>
<!-- 0&#45;&gt;3 -->
<g id="edge2" class="edge">
<title>0&#45;&gt;3</title>
<path fill="none" stroke="grey" d="M75.19,-156.28C72.22,-133.84 71.96,-88.16 74.42,-61.69"/>
<polygon fill="grey" stroke="grey" points="76.89,-61.68 75.23,-54.45 72.02,-61.14 76.89,-61.68"/>
</g>
<!-- 1 -->
<g id="node2" class="node">
<title>1</title>
<ellipse fill="#ffffff" stroke="grey" cx="14.5" cy="-40.5" rx="14.5" ry="14.5"/>
<text text-anchor="middle" x="14.5" y="-36.8" font-family="Times,serif" font-size="14.00">1</text>
</g>
<!-- 1&#45;&gt;1 -->
<g id="edge3" class="edge">
<title>1&#45;&gt;1</title>
<path fill="none" stroke="grey" d="M25.49,-50.2C35.81,-55.23 47,-52 47,-40.5 47,-31.52 40.17,-27.58 32.26,-28.68"/>
<polygon fill="grey" stroke="grey" points="31.44,-26.37 25.49,-30.8 32.9,-31.05 31.44,-26.37"/>
</g>
<!-- 2&#45;&gt;1 -->
<g id="edge4" class="edge">
<title>2&#45;&gt;1</title>
<path fill="none" stroke="grey" d="M24.74,-91.14C22.99,-82.62 20.67,-71.41 18.69,-61.81"/>
<polygon fill="grey" stroke="grey" points="21.07,-61.2 17.25,-54.84 16.27,-62.19 21.07,-61.2"/>
</g>
<!-- 2&#45;&gt;3 -->
<g id="edge5" class="edge">
<title>2&#45;&gt;3</title>
<path fill="none" stroke="grey" d="M36.32,-93.81C44.41,-84.01 56.53,-69.33 65.87,-58.02"/>
<polygon fill="grey" stroke="grey" points="67.89,-59.41 70.46,-52.45 64.12,-56.29 67.89,-59.41"/>
</g>
<!-- 3&#45;&gt;0 -->
<g id="edge6" class="edge">
<title>3&#45;&gt;0</title>
<path fill="none" stroke="grey" d="M83.77,-54.45C86.77,-76.71 87.05,-122.38 84.61,-149"/>
<polygon fill="grey" stroke="grey" points="82.14,-149.06 83.81,-156.28 87.01,-149.59 82.14,-149.06"/>
</g>
</g>
</svg>
