<?xml version="1.0" encoding="UTF-8" standalone="no"?>
<!DOCTYPE svg PUBLIC "-//W3C//DTD SVG 1.1//EN"
 "http://www.w3.org/Graphics/SVG/1.1/DTD/svg11.dtd">
<!-- Generated by graphviz version 2.43.0 (0)
 -->
<!-- Title: gloutonSimple_G2 Pages: 1 -->
<svg width="176pt" height="169pt"
 viewBox="0.00 0.00 176.00 168.59" xmlns="http://www.w3.org/2000/svg" xmlns:xlink="http://www.w3.org/1999/xlink">
<g id="graph0" class="graph" transform="scale(1 1) rotate(0) translate(4 164.59)">
<title>gloutonSimple_G2</title>
<polygon fill="transparent" stroke="transparent" points="-4,4 -4,-164.59 172,-164.59 172,4 -4,4"/>
<text text-anchor="middle" x="84" y="-9.2" font-family="Times,serif" font-size="16.00" fill="grey">gloutonSimple_G2</text>
<!-- 0 -->
<g id="node1" class="node">
<title>0</title>
<ellipse fill="#cdff00" stroke="grey" cx="76.46" cy="-40.5" rx="14.5" ry="14.5"/>
<text text-anchor="middle" x="76.46" y="-36.8" font-family="Times,serif" font-size="14.00">0</text>
</g>
<!-- 1 -->
<g id="node2" class="node">
<title>1</title>
<ellipse fill="#00ff8c" stroke="grey" cx="128.42" cy="-73.29" rx="14.5" ry="14.5"/>
<text text-anchor="middle" x="128.42" y="-69.59" font-family="Times,serif" font-size="14.00">1</text>
</g>
<!-- 0&#45;&#45;1 -->
<g id="edge1" class="edge">
<title>0&#45;&#45;1</title>
<path fill="none" stroke="grey" d="M88.78,-48.27C96.94,-53.42 107.62,-60.16 115.84,-65.35"/>
</g>
<!-- 2 -->
<g id="node3" class="node">
<title>2</title>
<ellipse fill="#00ff8c" stroke="grey" cx="39.58" cy="-89.62" rx="14.5" ry="14.5"/>
<text text-anchor="middle" x="39.58" y="-85.92" font-family="Times,serif" font-size="14.00">2</text>
</g>
<!-- 0&#45;&#45;2 -->
<g id="edge2" class="edge">
<title>0&#45;&#45;2</title>
<path fill="none" stroke="grey" d="M67.72,-52.14C61.93,-59.86 54.35,-69.95 48.51,-77.72"/>
</g>
<!-- 3 -->
<g id="node4" class="node">
<title>3</title>
<ellipse fill="#cdff00" stroke="grey" cx="88.8" cy="-107.56" rx="14.5" ry="14.5"/>
<text text-anchor="middle" x="88.8" y="-103.86" font-family="Times,serif" font-size="14.00">3</text>
</g>
<!-- 1&#45;&#45;3 -->
<g id="edge3" class="edge">
<title>1&#45;&#45;3</title>
<path fill="none" stroke="grey" d="M117.17,-83.02C111.78,-87.69 105.33,-93.27 99.94,-97.92"/>
</g>
<!-- 4 -->
<g id="node5" class="node">
<title>4</title>
<ellipse fill="#0018ff" stroke="grey" cx="125.81" cy="-134.71" rx="14.5" ry="14.5"/>
<text text-anchor="middle" x="125.81" y="-131.01" font-family="Times,serif" font-size="14.00">4</text>
</g>
<!-- 1&#45;&#45;4 -->
<g id="edge4" class="edge">
<title>1&#45;&#45;4</title>
<path fill="none" stroke="grey" d="M127.8,-87.85C127.39,-97.5 126.85,-110.12 126.44,-119.83"/>
</g>
<!-- 2&#45;&#45;3 -->
<g id="edge5" class="edge">
<title>2&#45;&#45;3</title>
<path fill="none" stroke="grey" d="M53.29,-94.62C60.12,-97.1 68.35,-100.1 75.16,-102.59"/>
</g>
<!-- 5 -->
<g id="node6" class="node">
<title>5</title>
<ellipse fill="#ff00bf" stroke="grey" cx="63.84" cy="-146.09" rx="14.5" ry="14.5"/>
<text text-anchor="middle" x="63.84" y="-142.39" font-family="Times,serif" font-size="14.00">5</text>
</g>
<!-- 2&#45;&#45;5 -->
<g id="edge6" class="edge">
<title>2&#45;&#45;5</title>
<path fill="none" stroke="grey" d="M45.33,-103C49.14,-111.87 54.13,-123.48 57.97,-132.41"/>
</g>
<!-- 3&#45;&#45;4 -->
<g id="edge7" class="edge">
<title>3&#45;&#45;4</title>
<path fill="none" stroke="grey" d="M100.51,-116.15C104.83,-119.32 109.72,-122.91 114.05,-126.08"/>
</g>
<!-- 3&#45;&#45;5 -->
<g id="edge8" class="edge">
<title>3&#45;&#45;5</title>
<path fill="none" stroke="grey" d="M80.91,-119.75C77.99,-124.24 74.69,-129.34 71.77,-133.84"/>
</g>
<!-- 4&#45;&#45;5 -->
<g id="edge9" class="edge">
<title>4&#45;&#45;5</title>
<path fill="none" stroke="grey" d="M111.43,-137.35C101.42,-139.19 88.13,-141.63 78.14,-143.46"/>
</g>
</g>
</svg>
