<?xml version="1.0" encoding="UTF-8" standalone="no"?>
<!DOCTYPE svg PUBLIC "-//W3C//DTD SVG 1.1//EN"
 "http://www.w3.org/Graphics/SVG/1.1/DTD/svg11.dtd">
<!-- Generated by graphviz version 2.43.0 (0)
 -->
<!-- Title: gloutonSimple_G Pages: 1 -->
<svg width="166pt" height="189pt"
 viewBox="0.00 0.00 166.00 188.70" xmlns="http://www.w3.org/2000/svg" xmlns:xlink="http://www.w3.org/1999/xlink">
<g id="graph0" class="graph" transform="scale(1 1) rotate(0) translate(4 184.7)">
<title>gloutonSimple_G</title>
<polygon fill="transparent" stroke="transparent" points="-4,4 -4,-184.7 162,-184.7 162,4 -4,4"/>
<text text-anchor="middle" x="79" y="-9.2" font-family="Times,serif" font-size="16.00" fill="grey">gloutonSimple_G</text>
<!-- 0 -->
<g id="node1" class="node">
<title>0</title>
<ellipse fill="#5cff00" stroke="grey" cx="71.46" cy="-90.07" rx="14.5" ry="14.5"/>
<text text-anchor="middle" x="71.46" y="-86.37" font-family="Times,serif" font-size="14.00">0</text>
</g>
<!-- 1 -->
<g id="node2" class="node">
<title>1</title>
<ellipse fill="#008fff" stroke="grey" cx="101.07" cy="-133.07" rx="14.5" ry="14.5"/>
<text text-anchor="middle" x="101.07" y="-129.37" font-family="Times,serif" font-size="14.00">1</text>
</g>
<!-- 0&#45;&#45;1 -->
<g id="edge1" class="edge">
<title>0&#45;&#45;1</title>
<path fill="none" stroke="grey" d="M79.86,-102.28C83.9,-108.13 88.72,-115.13 92.74,-120.98"/>
</g>
<!-- 2 -->
<g id="node3" class="node">
<title>2</title>
<ellipse fill="#ff00bf" stroke="grey" cx="51.05" cy="-133.24" rx="14.5" ry="14.5"/>
<text text-anchor="middle" x="51.05" y="-129.54" font-family="Times,serif" font-size="14.00">2</text>
</g>
<!-- 0&#45;&#45;2 -->
<g id="edge2" class="edge">
<title>0&#45;&#45;2</title>
<path fill="none" stroke="grey" d="M65.22,-103.26C62.74,-108.51 59.88,-114.56 57.39,-119.83"/>
</g>
<!-- 4 -->
<g id="node5" class="node">
<title>4</title>
<ellipse fill="#008fff" stroke="grey" cx="87.38" cy="-40.5" rx="14.5" ry="14.5"/>
<text text-anchor="middle" x="87.38" y="-36.8" font-family="Times,serif" font-size="14.00">4</text>
</g>
<!-- 0&#45;&#45;4 -->
<g id="edge3" class="edge">
<title>0&#45;&#45;4</title>
<path fill="none" stroke="grey" d="M75.89,-76.26C78.06,-69.5 80.67,-61.37 82.86,-54.58"/>
</g>
<!-- 5 -->
<g id="node6" class="node">
<title>5</title>
<ellipse fill="#008fff" stroke="grey" cx="18.9" cy="-96.23" rx="14.5" ry="14.5"/>
<text text-anchor="middle" x="18.9" y="-92.53" font-family="Times,serif" font-size="14.00">5</text>
</g>
<!-- 0&#45;&#45;5 -->
<g id="edge4" class="edge">
<title>0&#45;&#45;5</title>
<path fill="none" stroke="grey" d="M56.82,-91.79C49.53,-92.64 40.74,-93.67 33.46,-94.53"/>
</g>
<!-- 1&#45;&#45;2 -->
<g id="edge5" class="edge">
<title>1&#45;&#45;2</title>
<path fill="none" stroke="grey" d="M86.33,-133.12C79.88,-133.14 72.32,-133.16 65.86,-133.19"/>
</g>
<!-- 3 -->
<g id="node4" class="node">
<title>3</title>
<ellipse fill="#5cff00" stroke="grey" cx="139.1" cy="-166.2" rx="14.5" ry="14.5"/>
<text text-anchor="middle" x="139.1" y="-162.5" font-family="Times,serif" font-size="14.00">3</text>
</g>
<!-- 1&#45;&#45;3 -->
<g id="edge6" class="edge">
<title>1&#45;&#45;3</title>
<path fill="none" stroke="grey" d="M112.27,-142.83C117.27,-147.18 123.13,-152.29 128.1,-156.62"/>
</g>
<!-- 2&#45;&#45;5 -->
<g id="edge7" class="edge">
<title>2&#45;&#45;5</title>
<path fill="none" stroke="grey" d="M41.23,-121.93C37.17,-117.26 32.48,-111.86 28.44,-107.21"/>
</g>
</g>
</svg>
