<?xml version="1.0" encoding="UTF-8" standalone="no"?>
<!DOCTYPE svg PUBLIC "-//W3C//DTD SVG 1.1//EN"
 "http://www.w3.org/Graphics/SVG/1.1/DTD/svg11.dtd">
<!-- Generated by graphviz version 2.43.0 (0)
 -->
<!-- Title: gloutonSimple_G1 Pages: 1 -->
<svg width="176pt" height="127pt"
 viewBox="0.00 0.00 176.00 127.35" xmlns="http://www.w3.org/2000/svg" xmlns:xlink="http://www.w3.org/1999/xlink">
<g id="graph0" class="graph" transform="scale(1 1) rotate(0) translate(4 123.35)">
<title>gloutonSimple_G1</title>
<polygon fill="transparent" stroke="transparent" points="-4,4 -4,-123.35 172,-123.35 172,4 -4,4"/>
<text text-anchor="middle" x="84" y="-9.2" font-family="Times,serif" font-size="16.00" fill="grey">gloutonSimple_G1</text>
<!-- 0 -->
<g id="node1" class="node">
<title>0</title>
<ellipse fill="#cdff00" stroke="grey" cx="32.7" cy="-79.8" rx="14.5" ry="14.5"/>
<text text-anchor="middle" x="32.7" y="-76.1" font-family="Times,serif" font-size="14.00">0</text>
</g>
<!-- 2 -->
<g id="node3" class="node">
<title>2</title>
<ellipse fill="#00ff8c" stroke="grey" cx="68.51" cy="-40.5" rx="14.5" ry="14.5"/>
<text text-anchor="middle" x="68.51" y="-36.8" font-family="Times,serif" font-size="14.00">2</text>
</g>
<!-- 0&#45;&#45;2 -->
<g id="edge1" class="edge">
<title>0&#45;&#45;2</title>
<path fill="none" stroke="grey" d="M42.49,-69.06C47.54,-63.52 53.69,-56.77 58.74,-51.23"/>
</g>
<!-- 3 -->
<g id="node4" class="node">
<title>3</title>
<ellipse fill="#0018ff" stroke="grey" cx="84.62" cy="-89.77" rx="14.5" ry="14.5"/>
<text text-anchor="middle" x="84.62" y="-86.07" font-family="Times,serif" font-size="14.00">3</text>
</g>
<!-- 0&#45;&#45;3 -->
<g id="edge2" class="edge">
<title>0&#45;&#45;3</title>
<path fill="none" stroke="grey" d="M47.16,-82.58C54.37,-83.96 63.05,-85.62 70.24,-87.01"/>
</g>
<!-- 1 -->
<g id="node2" class="node">
<title>1</title>
<ellipse fill="#cdff00" stroke="grey" cx="135.3" cy="-104.85" rx="14.5" ry="14.5"/>
<text text-anchor="middle" x="135.3" y="-101.15" font-family="Times,serif" font-size="14.00">1</text>
</g>
<!-- 1&#45;&#45;3 -->
<g id="edge3" class="edge">
<title>1&#45;&#45;3</title>
<path fill="none" stroke="grey" d="M121.18,-100.65C114.16,-98.56 105.68,-96.04 98.66,-93.95"/>
</g>
<!-- 4 -->
<g id="node5" class="node">
<title>4</title>
<ellipse fill="#ff00bf" stroke="grey" cx="121.63" cy="-53.47" rx="14.5" ry="14.5"/>
<text text-anchor="middle" x="121.63" y="-49.77" font-family="Times,serif" font-size="14.00">4</text>
</g>
<!-- 1&#45;&#45;4 -->
<g id="edge4" class="edge">
<title>1&#45;&#45;4</title>
<path fill="none" stroke="grey" d="M131.56,-90.81C129.63,-83.56 127.29,-74.74 125.36,-67.49"/>
</g>
<!-- 2&#45;&#45;3 -->
<g id="edge5" class="edge">
<title>2&#45;&#45;3</title>
<path fill="none" stroke="grey" d="M73.09,-54.49C75.28,-61.2 77.9,-69.22 80.09,-75.92"/>
</g>
<!-- 2&#45;&#45;4 -->
<g id="edge6" class="edge">
<title>2&#45;&#45;4</title>
<path fill="none" stroke="grey" d="M82.75,-43.98C90.37,-45.84 99.73,-48.12 107.35,-49.99"/>
</g>
<!-- 3&#45;&#45;4 -->
<g id="edge7" class="edge">
<title>3&#45;&#45;4</title>
<path fill="none" stroke="grey" d="M95.13,-79.46C100.17,-74.52 106.2,-68.61 111.22,-63.68"/>
</g>
</g>
</svg>
