<?xml version="1.0" encoding="UTF-8" standalone="no"?>
<!DOCTYPE svg PUBLIC "-//W3C//DTD SVG 1.1//EN"
 "http://www.w3.org/Graphics/SVG/1.1/DTD/svg11.dtd">
<!-- Generated by graphviz version 2.43.0 (0)
 -->
<!-- Title: glouton_G2 Pages: 1 -->
<svg width="126pt" height="169pt"
 viewBox="0.00 0.00 125.84 168.59" xmlns="http://www.w3.org/2000/svg" xmlns:xlink="http://www.w3.org/1999/xlink">
<g id="graph0" class="graph" transform="scale(1 1) rotate(0) translate(4 164.59)">
<title>glouton_G2</title>
<polygon fill="transparent" stroke="transparent" points="-4,4 -4,-164.59 121.84,-164.59 121.84,4 -4,4"/>
<text text-anchor="middle" x="58.92" y="-9.2" font-family="Times,serif" font-size="16.00" fill="grey">glouton_G2</text>
<!-- 0 -->
<g id="node1" class="node">
<title>0</title>
<ellipse fill="#cdff00" stroke="grey" cx="51.38" cy="-40.5" rx="14.5" ry="14.5"/>
<text text-anchor="middle" x="51.38" y="-36.8" font-family="Times,serif" font-size="14.00">0</text>
</g>
<!-- 1 -->
<g id="node2" class="node">
<title>1</title>
<ellipse fill="#00ff8c" stroke="grey" cx="103.34" cy="-73.29" rx="14.5" ry="14.5"/>
<text text-anchor="middle" x="103.34" y="-69.59" font-family="Times,serif" font-size="14.00">1</text>
</g>
<!-- 0&#45;&#45;1 -->
<g id="edge1" class="edge">
<title>0&#45;&#45;1</title>
<path fill="none" stroke="grey" d="M63.7,-48.27C71.86,-53.42 82.54,-60.16 90.76,-65.35"/>
</g>
<!-- 2 -->
<g id="node3" class="node">
<title>2</title>
<ellipse fill="#00ff8c" stroke="grey" cx="14.5" cy="-89.62" rx="14.5" ry="14.5"/>
<text text-anchor="middle" x="14.5" y="-85.92" font-family="Times,serif" font-size="14.00">2</text>
</g>
<!-- 0&#45;&#45;2 -->
<g id="edge2" class="edge">
<title>0&#45;&#45;2</title>
<path fill="none" stroke="grey" d="M42.64,-52.14C36.85,-59.86 29.27,-69.95 23.43,-77.72"/>
</g>
<!-- 3 -->
<g id="node4" class="node">
<title>3</title>
<ellipse fill="#cdff00" stroke="grey" cx="63.72" cy="-107.56" rx="14.5" ry="14.5"/>
<text text-anchor="middle" x="63.72" y="-103.86" font-family="Times,serif" font-size="14.00">3</text>
</g>
<!-- 1&#45;&#45;3 -->
<g id="edge3" class="edge">
<title>1&#45;&#45;3</title>
<path fill="none" stroke="grey" d="M92.1,-83.02C86.7,-87.69 80.25,-93.27 74.86,-97.92"/>
</g>
<!-- 4 -->
<g id="node5" class="node">
<title>4</title>
<ellipse fill="#0018ff" stroke="grey" cx="100.73" cy="-134.71" rx="14.5" ry="14.5"/>
<text text-anchor="middle" x="100.73" y="-131.01" font-family="Times,serif" font-size="14.00">4</text>
</g>
<!-- 1&#45;&#45;4 -->
<g id="edge4" class="edge">
<title>1&#45;&#45;4</title>
<path fill="none" stroke="grey" d="M102.72,-87.85C102.31,-97.5 101.77,-110.12 101.36,-119.83"/>
</g>
<!-- 2&#45;&#45;3 -->
<g id="edge5" class="edge">
<title>2&#45;&#45;3</title>
<path fill="none" stroke="grey" d="M28.21,-94.62C35.04,-97.1 43.27,-100.1 50.09,-102.59"/>
</g>
<!-- 5 -->
<g id="node6" class="node">
<title>5</title>
<ellipse fill="#ff00bf" stroke="grey" cx="38.76" cy="-146.09" rx="14.5" ry="14.5"/>
<text text-anchor="middle" x="38.76" y="-142.39" font-family="Times,serif" font-size="14.00">5</text>
</g>
<!-- 2&#45;&#45;5 -->
<g id="edge6" class="edge">
<title>2&#45;&#45;5</title>
<path fill="none" stroke="grey" d="M20.25,-103C24.06,-111.87 29.05,-123.48 32.89,-132.41"/>
</g>
<!-- 3&#45;&#45;4 -->
<g id="edge7" class="edge">
<title>3&#45;&#45;4</title>
<path fill="none" stroke="grey" d="M75.43,-116.15C79.75,-119.32 84.64,-122.91 88.97,-126.08"/>
</g>
<!-- 3&#45;&#45;5 -->
<g id="edge8" class="edge">
<title>3&#45;&#45;5</title>
<path fill="none" stroke="grey" d="M55.83,-119.75C52.91,-124.24 49.61,-129.34 46.7,-133.84"/>
</g>
<!-- 4&#45;&#45;5 -->
<g id="edge9" class="edge">
<title>4&#45;&#45;5</title>
<path fill="none" stroke="grey" d="M86.36,-137.35C76.35,-139.19 63.05,-141.63 53.06,-143.46"/>
</g>
</g>
</svg>
