<?xml version="1.0" encoding="UTF-8" standalone="no"?>
<!DOCTYPE svg PUBLIC "-//W3C//DTD SVG 1.1//EN"
 "http://www.w3.org/Graphics/SVG/1.1/DTD/svg11.dtd">
<!-- Generated by graphviz version 2.43.0 (0)
 -->
<!-- Title: GV Pages: 1 -->
<svg width="186pt" height="375pt"
 viewBox="0.00 0.00 185.50 375.00" xmlns="http://www.w3.org/2000/svg" xmlns:xlink="http://www.w3.org/1999/xlink">
<g id="graph0" class="graph" transform="scale(1 1) rotate(0) translate(4 371)">
<title>GV</title>
<polygon fill="transparent" stroke="transparent" points="-4,4 -4,-371 181.5,-371 181.5,4 -4,4"/>
<text text-anchor="middle" x="88.75" y="-9.2" font-family="Times,serif" font-size="16.00" fill="grey">GV</text>
<!-- 0 -->
<g id="node1" class="node">
<title>0</title>
<ellipse fill="#ffffff" stroke="grey" cx="88.5" cy="-352.5" rx="14.5" ry="14.5"/>
<text text-anchor="middle" x="88.5" y="-348.8" font-family="Times,serif" font-size="14.00">0</text>
</g>
<!-- 1 -->
<g id="node2" class="node">
<title>1</title>
<ellipse fill="#ffffff" stroke="grey" cx="14.5" cy="-274.5" rx="14.5" ry="14.5"/>
<text text-anchor="middle" x="14.5" y="-270.8" font-family="Times,serif" font-size="14.00">1</text>
</g>
<!-- 0&#45;&#45;1 -->
<g id="edge1" class="edge">
<title>0&#45;&#45;1</title>
<path fill="none" stroke="grey" d="M74.8,-346.82C62.27,-341.91 43.99,-333.07 32.5,-320 24.68,-311.11 20,-298.39 17.38,-288.83"/>
<text text-anchor="middle" x="42" y="-310.4" font-family="Times,serif" font-size="12.00" fill="grey">2.0</text>
</g>
<!-- 2 -->
<g id="node3" class="node">
<title>2</title>
<ellipse fill="#ffffff" stroke="grey" cx="55.5" cy="-196.5" rx="14.5" ry="14.5"/>
<text text-anchor="middle" x="55.5" y="-192.8" font-family="Times,serif" font-size="14.00">2</text>
</g>
<!-- 0&#45;&#45;2 -->
<g id="edge2" class="edge">
<title>0&#45;&#45;2</title>
<path fill="none" stroke="grey" d="M85.63,-338.1C79.39,-308.98 64.64,-240.17 58.39,-210.98"/>
<text text-anchor="middle" x="84" y="-271.4" font-family="Times,serif" font-size="12.00" fill="grey">4.0</text>
</g>
<!-- 3 -->
<g id="node4" class="node">
<title>3</title>
<ellipse fill="#ffffff" stroke="grey" cx="104.5" cy="-118.5" rx="14.5" ry="14.5"/>
<text text-anchor="middle" x="104.5" y="-114.8" font-family="Times,serif" font-size="14.00">3</text>
</g>
<!-- 0&#45;&#45;3 -->
<g id="edge3" class="edge">
<title>0&#45;&#45;3</title>
<path fill="none" stroke="grey" d="M90.88,-338.14C93.03,-325.52 96.05,-306.04 97.5,-289 102.41,-231.19 103.91,-161.98 104.34,-133.15"/>
<text text-anchor="middle" x="110" y="-232.4" font-family="Times,serif" font-size="12.00" fill="grey">3.0</text>
</g>
<!-- 4 -->
<g id="node5" class="node">
<title>4</title>
<ellipse fill="#ffffff" stroke="grey" cx="104.5" cy="-40.5" rx="14.5" ry="14.5"/>
<text text-anchor="middle" x="104.5" y="-36.8" font-family="Times,serif" font-size="14.00">4</text>
</g>
<!-- 0&#45;&#45;4 -->
<g id="edge4" class="edge">
<title>0&#45;&#45;4</title>
<path fill="none" stroke="grey" d="M101.34,-345.04C121.55,-333.87 158.5,-308.87 158.5,-275.5 158.5,-275.5 158.5,-275.5 158.5,-117.5 158.5,-88.37 131.8,-62.63 115.95,-49.91"/>
<text text-anchor="middle" x="168" y="-193.4" font-family="Times,serif" font-size="12.00" fill="grey">6.0</text>
</g>
<!-- 1&#45;&#45;2 -->
<g id="edge5" class="edge">
<title>1&#45;&#45;2</title>
<path fill="none" stroke="grey" d="M18.88,-260.26C22.12,-251.2 26.91,-239.05 32.5,-229 36.58,-221.66 42.1,-214.04 46.72,-208.14"/>
<text text-anchor="middle" x="42" y="-232.4" font-family="Times,serif" font-size="12.00" fill="grey">7.0</text>
</g>
<!-- 2&#45;&#45;3 -->
<g id="edge6" class="edge">
<title>2&#45;&#45;3</title>
<path fill="none" stroke="grey" d="M61.46,-183.08C66.01,-173.96 72.64,-161.41 79.5,-151 84.34,-143.65 90.47,-135.91 95.45,-129.94"/>
<text text-anchor="middle" x="89" y="-154.4" font-family="Times,serif" font-size="12.00" fill="grey">2.0</text>
</g>
<!-- 2&#45;&#45;4 -->
<g id="edge7" class="edge">
<title>2&#45;&#45;4</title>
<path fill="none" stroke="grey" d="M54.43,-182.04C53.45,-163.8 53.31,-130.49 62.5,-104 69.61,-83.5 85.16,-63.31 95.21,-51.64"/>
<text text-anchor="middle" x="72" y="-115.4" font-family="Times,serif" font-size="12.00" fill="grey">8.0</text>
</g>
<!-- 3&#45;&#45;4 -->
<g id="edge8" class="edge">
<title>3&#45;&#45;4</title>
<path fill="none" stroke="grey" d="M104.5,-103.91C104.5,-90.16 104.5,-69.02 104.5,-55.23"/>
<text text-anchor="middle" x="114" y="-76.4" font-family="Times,serif" font-size="12.00" fill="grey">1.0</text>
</g>
</g>
</svg>
