<?xml version="1.0" encoding="UTF-8" standalone="no"?>
<!DOCTYPE svg PUBLIC "-//W3C//DTD SVG 1.1//EN"
 "http://www.w3.org/Graphics/SVG/1.1/DTD/svg11.dtd">
<!-- Generated by graphviz version 2.43.0 (0)
 -->
<!-- Title: GV2 Pages: 1 -->
<svg width="148pt" height="297pt"
 viewBox="0.00 0.00 148.00 297.00" xmlns="http://www.w3.org/2000/svg" xmlns:xlink="http://www.w3.org/1999/xlink">
<g id="graph0" class="graph" transform="scale(1 1) rotate(0) translate(4 293)">
<title>GV2</title>
<polygon fill="transparent" stroke="transparent" points="-4,4 -4,-293 144,-293 144,4 -4,4"/>
<text text-anchor="middle" x="70" y="-9.2" font-family="Times,serif" font-size="16.00" fill="grey">GV2</text>
<!-- 0 -->
<g id="node1" class="node">
<title>0</title>
<ellipse fill="#ffffff" stroke="grey" cx="14.5" cy="-274.5" rx="14.5" ry="14.5"/>
<text text-anchor="middle" x="14.5" y="-270.8" font-family="Times,serif" font-size="14.00">0</text>
</g>
<!-- 1 -->
<g id="node2" class="node">
<title>1</title>
<ellipse fill="#ffffff" stroke="grey" cx="14.5" cy="-118.5" rx="14.5" ry="14.5"/>
<text text-anchor="middle" x="14.5" y="-114.8" font-family="Times,serif" font-size="14.00">1</text>
</g>
<!-- 0&#45;&gt;1 -->
<g id="edge1" class="edge">
<title>0&#45;&gt;1</title>
<path fill="none" stroke="grey" d="M14.5,-259.83C14.5,-232.85 14.5,-172.56 14.5,-140.49"/>
<polygon fill="grey" stroke="grey" points="16.95,-140.36 14.5,-133.36 12.05,-140.36 16.95,-140.36"/>
<text text-anchor="middle" x="24" y="-193.4" font-family="Times,serif" font-size="12.00" fill="grey">8.0</text>
</g>
<!-- 2 -->
<g id="node3" class="node">
<title>2</title>
<ellipse fill="#ffffff" stroke="grey" cx="57.5" cy="-196.5" rx="14.5" ry="14.5"/>
<text text-anchor="middle" x="57.5" y="-192.8" font-family="Times,serif" font-size="14.00">2</text>
</g>
<!-- 0&#45;&gt;2 -->
<g id="edge2" class="edge">
<title>0&#45;&gt;2</title>
<path fill="none" stroke="grey" d="M21.22,-261.62C28.18,-249.32 39.16,-229.92 47.21,-215.68"/>
<polygon fill="grey" stroke="grey" points="49.37,-216.84 50.69,-209.54 45.11,-214.43 49.37,-216.84"/>
<text text-anchor="middle" x="48" y="-232.4" font-family="Times,serif" font-size="12.00" fill="grey">2.0</text>
</g>
<!-- 3 -->
<g id="node4" class="node">
<title>3</title>
<ellipse fill="#ffffff" stroke="grey" cx="65.5" cy="-40.5" rx="14.5" ry="14.5"/>
<text text-anchor="middle" x="65.5" y="-36.8" font-family="Times,serif" font-size="14.00">3</text>
</g>
<!-- 1&#45;&gt;3 -->
<g id="edge3" class="edge">
<title>1&#45;&gt;3</title>
<path fill="none" stroke="grey" d="M18.2,-104.32C21.18,-95.06 25.95,-82.65 32.5,-73 36.97,-66.41 43.02,-60.15 48.71,-54.96"/>
<polygon fill="grey" stroke="grey" points="50.55,-56.61 54.22,-50.16 47.33,-52.91 50.55,-56.61"/>
<text text-anchor="middle" x="42" y="-76.4" font-family="Times,serif" font-size="12.00" fill="grey">1.0</text>
</g>
<!-- 2&#45;&gt;1 -->
<g id="edge4" class="edge">
<title>2&#45;&gt;1</title>
<path fill="none" stroke="grey" d="M48.13,-185.26C43.05,-179.35 36.93,-171.6 32.5,-164 28,-156.28 24.12,-147.23 21.12,-139.3"/>
<polygon fill="grey" stroke="grey" points="23.31,-138.17 18.62,-132.42 18.7,-139.84 23.31,-138.17"/>
<text text-anchor="middle" x="42" y="-154.4" font-family="Times,serif" font-size="12.00" fill="grey">5.0</text>
</g>
<!-- 2&#45;&gt;3 -->
<g id="edge5" class="edge">
<title>2&#45;&gt;3</title>
<path fill="none" stroke="grey" d="M58.21,-181.83C59.61,-154.85 62.74,-94.56 64.41,-62.49"/>
<polygon fill="grey" stroke="grey" points="66.86,-62.47 64.78,-55.36 61.97,-62.22 66.86,-62.47"/>
<text text-anchor="middle" x="75" y="-115.4" font-family="Times,serif" font-size="12.00" fill="grey">11.0</text>
</g>
<!-- 4 -->
<g id="node5" class="node">
<title>4</title>
<ellipse fill="#ffffff" stroke="grey" cx="125.5" cy="-118.5" rx="14.5" ry="14.5"/>
<text text-anchor="middle" x="125.5" y="-114.8" font-family="Times,serif" font-size="14.00">4</text>
</g>
<!-- 2&#45;&gt;4 -->
<g id="edge6" class="edge">
<title>2&#45;&gt;4</title>
<path fill="none" stroke="grey" d="M66.67,-185.25C78.06,-172.52 97.64,-150.64 111.05,-135.65"/>
<polygon fill="grey" stroke="grey" points="113.2,-136.93 116.04,-130.07 109.54,-133.66 113.2,-136.93"/>
<text text-anchor="middle" x="105" y="-154.4" font-family="Times,serif" font-size="12.00" fill="grey">1.0</text>
</g>
<!-- 4&#45;&gt;3 -->
<g id="edge7" class="edge">
<title>4&#45;&gt;3</title>
<path fill="none" stroke="grey" d="M116.9,-106.61C106.92,-93.97 90.35,-72.98 78.73,-58.25"/>
<polygon fill="grey" stroke="grey" points="80.34,-56.34 74.08,-52.37 76.5,-59.38 80.34,-56.34"/>
<text text-anchor="middle" x="108" y="-76.4" font-family="Times,serif" font-size="12.00" fill="grey">9.0</text>
</g>
</g>
</svg>
