<?xml version="1.0" encoding="UTF-8" standalone="no"?>
<!DOCTYPE svg PUBLIC "-//W3C//DTD SVG 1.1//EN"
 "http://www.w3.org/Graphics/SVG/1.1/DTD/svg11.dtd">
<!-- Generated by graphviz version 2.43.0 (0)
 -->
<!-- Title: Hasse de M4 Pages: 1 -->
<svg width="133pt" height="128pt"
 viewBox="0.00 0.00 133.00 127.57" xmlns="http://www.w3.org/2000/svg" xmlns:xlink="http://www.w3.org/1999/xlink">
<g id="graph0" class="graph" transform="scale(1 1) rotate(0) translate(4 123.57)">
<title>Hasse de M4</title>
<polygon fill="transparent" stroke="transparent" points="-4,4 -4,-123.57 129,-123.57 129,4 -4,4"/>
<text text-anchor="middle" x="62.5" y="-9.2" font-family="Times,serif" font-size="16.00" fill="grey">Hasse de M4</text>
<!-- 0 -->
<g id="node1" class="node">
<title>0</title>
<ellipse fill="#ffffff" stroke="grey" cx="21.24" cy="-68" rx="14.5" ry="14.5"/>
<text text-anchor="middle" x="21.24" y="-64.3" font-family="Times,serif" font-size="14.00">0</text>
</g>
<!-- 0&#45;&gt;0 -->
<g id="edge1" class="edge">
<title>0&#45;&gt;0</title>
<path fill="none" stroke="grey" d="M34.6,-74.02C44.19,-75.98 53.74,-73.98 53.74,-68 53.74,-63.52 48.37,-61.27 41.64,-61.25"/>
<polygon fill="grey" stroke="grey" points="41.31,-58.82 34.6,-61.98 41.81,-63.69 41.31,-58.82"/>
</g>
<!-- 2 -->
<g id="node3" class="node">
<title>2</title>
<ellipse fill="#ffffff" stroke="grey" cx="58.25" cy="-40.5" rx="14.5" ry="14.5"/>
<text text-anchor="middle" x="58.25" y="-36.8" font-family="Times,serif" font-size="14.00">2</text>
</g>
<!-- 0&#45;&gt;2 -->
<g id="edge2" class="edge">
<title>0&#45;&gt;2</title>
<path fill="none" stroke="grey" d="M32.95,-59.3C35.38,-57.49 37.99,-55.55 40.58,-53.63"/>
<polygon fill="grey" stroke="grey" points="42.33,-55.38 46.49,-49.24 39.41,-51.45 42.33,-55.38"/>
</g>
<!-- 3 -->
<g id="node4" class="node">
<title>3</title>
<ellipse fill="#ffffff" stroke="grey" cx="48.69" cy="-105.07" rx="14.5" ry="14.5"/>
<text text-anchor="middle" x="48.69" y="-101.37" font-family="Times,serif" font-size="14.00">3</text>
</g>
<!-- 0&#45;&gt;3 -->
<g id="edge3" class="edge">
<title>0&#45;&gt;3</title>
<path fill="none" stroke="grey" d="M29.93,-79.73C31.73,-82.16 33.66,-84.78 35.58,-87.37"/>
<polygon fill="grey" stroke="grey" points="33.83,-89.12 39.96,-93.29 37.77,-86.21 33.83,-89.12"/>
</g>
<!-- 1 -->
<g id="node2" class="node">
<title>1</title>
<ellipse fill="#ffffff" stroke="grey" cx="85.76" cy="-77.55" rx="14.5" ry="14.5"/>
<text text-anchor="middle" x="85.76" y="-73.85" font-family="Times,serif" font-size="14.00">1</text>
</g>
<!-- 1&#45;&gt;0 -->
<g id="edge4" class="edge">
<title>1&#45;&gt;0</title>
<path fill="none" stroke="grey" d="M71.12,-75.38C62.79,-74.15 52.19,-72.58 42.92,-71.21"/>
<polygon fill="grey" stroke="grey" points="43.11,-68.76 35.82,-70.16 42.39,-73.61 43.11,-68.76"/>
</g>
<!-- 1&#45;&gt;1 -->
<g id="edge5" class="edge">
<title>1&#45;&gt;1</title>
<path fill="none" stroke="grey" d="M99.11,-83.57C108.7,-85.53 118.26,-83.53 118.26,-77.55 118.26,-73.07 112.88,-70.82 106.15,-70.8"/>
<polygon fill="grey" stroke="grey" points="105.82,-68.37 99.11,-71.53 106.32,-73.24 105.82,-68.37"/>
</g>
<!-- 1&#45;&gt;2 -->
<g id="edge6" class="edge">
<title>1&#45;&gt;2</title>
<path fill="none" stroke="grey" d="M77.05,-65.83C75.25,-63.39 73.3,-60.78 71.38,-58.19"/>
<polygon fill="grey" stroke="grey" points="73.13,-56.43 66.99,-52.27 69.2,-59.35 73.13,-56.43"/>
</g>
<!-- 1&#45;&gt;3 -->
<g id="edge7" class="edge">
<title>1&#45;&gt;3</title>
<path fill="none" stroke="grey" d="M74.03,-86.26C71.59,-88.06 68.98,-90.01 66.38,-91.93"/>
<polygon fill="grey" stroke="grey" points="64.63,-90.19 60.47,-96.33 67.55,-94.12 64.63,-90.19"/>
</g>
<!-- 2&#45;&gt;2 -->
<g id="edge8" class="edge">
<title>2&#45;&gt;2</title>
<path fill="none" stroke="grey" d="M71.6,-46.52C81.19,-48.48 90.75,-46.48 90.75,-40.5 90.75,-36.02 85.37,-33.77 78.64,-33.75"/>
<polygon fill="grey" stroke="grey" points="78.31,-31.32 71.6,-34.48 78.82,-36.19 78.31,-31.32"/>
</g>
<!-- 2&#45;&gt;3 -->
<g id="edge9" class="edge">
<title>2&#45;&gt;3</title>
<path fill="none" stroke="grey" d="M56.08,-55.15C54.84,-63.49 53.27,-74.09 51.9,-83.38"/>
<polygon fill="grey" stroke="grey" points="49.45,-83.19 50.85,-90.48 54.3,-83.91 49.45,-83.19"/>
</g>
<!-- 3&#45;&gt;3 -->
<g id="edge10" class="edge">
<title>3&#45;&gt;3</title>
<path fill="none" stroke="grey" d="M62.04,-111.09C71.63,-113.06 81.19,-111.05 81.19,-105.07 81.19,-100.59 75.81,-98.34 69.08,-98.32"/>
<polygon fill="grey" stroke="grey" points="68.75,-95.89 62.04,-99.05 69.25,-100.77 68.75,-95.89"/>
</g>
</g>
</svg>
