<?xml version="1.0" encoding="UTF-8" standalone="no"?>
<!DOCTYPE svg PUBLIC "-//W3C//DTD SVG 1.1//EN"
 "http://www.w3.org/Graphics/SVG/1.1/DTD/svg11.dtd">
<!-- Generated by graphviz version 2.43.0 (0)
 -->
<!-- Title: M1 Pages: 1 -->
<svg width="120pt" height="128pt"
 viewBox="0.00 0.00 120.00 128.00" xmlns="http://www.w3.org/2000/svg" xmlns:xlink="http://www.w3.org/1999/xlink">
<g id="graph0" class="graph" transform="scale(1 1) rotate(0) translate(4 124)">
<title>M1</title>
<polygon fill="transparent" stroke="transparent" points="-4,4 -4,-124 116,-124 116,4 -4,4"/>
<text text-anchor="middle" x="56" y="-9.2" font-family="Times,serif" font-size="16.00" fill="grey">M1</text>
<!-- 0 -->
<g id="node1" class="node">
<title>0</title>
<ellipse fill="#ffffff" stroke="grey" cx="14.5" cy="-105.5" rx="14.5" ry="14.5"/>
<text text-anchor="middle" x="14.5" y="-101.8" font-family="Times,serif" font-size="14.00">0</text>
</g>
<!-- 0&#45;&gt;0 -->
<g id="edge1" class="edge">
<title>0&#45;&gt;0</title>
<path fill="none" stroke="grey" d="M25.49,-115.2C35.81,-120.23 47,-117 47,-105.5 47,-96.52 40.17,-92.58 32.26,-93.68"/>
<polygon fill="grey" stroke="grey" points="31.44,-91.37 25.49,-95.8 32.9,-96.05 31.44,-91.37"/>
</g>
<!-- 1 -->
<g id="node2" class="node">
<title>1</title>
<ellipse fill="#ffffff" stroke="grey" cx="14.5" cy="-40.5" rx="14.5" ry="14.5"/>
<text text-anchor="middle" x="14.5" y="-36.8" font-family="Times,serif" font-size="14.00">1</text>
</g>
<!-- 0&#45;&gt;1 -->
<g id="edge2" class="edge">
<title>0&#45;&gt;1</title>
<path fill="none" stroke="grey" d="M9,-92.05C7.66,-83.17 7.4,-71.04 8.21,-60.89"/>
<polygon fill="grey" stroke="grey" points="10.65,-61.15 9,-53.92 5.78,-60.6 10.65,-61.15"/>
</g>
<!-- 1&#45;&gt;0 -->
<g id="edge3" class="edge">
<title>1&#45;&gt;0</title>
<path fill="none" stroke="grey" d="M20,-53.92C21.34,-62.8 21.6,-74.93 20.79,-85.08"/>
<polygon fill="grey" stroke="grey" points="18.35,-84.82 20,-92.05 23.22,-85.37 18.35,-84.82"/>
</g>
<!-- 1&#45;&gt;1 -->
<g id="edge4" class="edge">
<title>1&#45;&gt;1</title>
<path fill="none" stroke="grey" d="M25.49,-50.2C35.81,-55.23 47,-52 47,-40.5 47,-31.52 40.17,-27.58 32.26,-28.68"/>
<polygon fill="grey" stroke="grey" points="31.44,-26.37 25.49,-30.8 32.9,-31.05 31.44,-26.37"/>
</g>
<!-- 2 -->
<g id="node3" class="node">
<title>2</title>
<ellipse fill="#ffffff" stroke="grey" cx="79.5" cy="-105.5" rx="14.5" ry="14.5"/>
<text text-anchor="middle" x="79.5" y="-101.8" font-family="Times,serif" font-size="14.00">2</text>
</g>
<!-- 2&#45;&gt;2 -->
<g id="edge5" class="edge">
<title>2&#45;&gt;2</title>
<path fill="none" stroke="grey" d="M90.49,-115.2C100.81,-120.23 112,-117 112,-105.5 112,-96.52 105.17,-92.58 97.26,-93.68"/>
<polygon fill="grey" stroke="grey" points="96.44,-91.37 90.49,-95.8 97.9,-96.05 96.44,-91.37"/>
</g>
</g>
</svg>
