<?xml version="1.0" encoding="UTF-8" standalone="no"?>
<!DOCTYPE svg PUBLIC "-//W3C//DTD SVG 1.1//EN"
 "http://www.w3.org/Graphics/SVG/1.1/DTD/svg11.dtd">
<!-- Generated by graphviz version 2.43.0 (0)
 -->
<!-- Title: M2 Pages: 1 -->
<svg width="102pt" height="128pt"
 viewBox="0.00 0.00 102.00 128.00" xmlns="http://www.w3.org/2000/svg" xmlns:xlink="http://www.w3.org/1999/xlink">
<g id="graph0" class="graph" transform="scale(1 1) rotate(0) translate(4 124)">
<title>M2</title>
<polygon fill="transparent" stroke="transparent" points="-4,4 -4,-124 98,-124 98,4 -4,4"/>
<text text-anchor="middle" x="47" y="-9.2" font-family="Times,serif" font-size="16.00" fill="grey">M2</text>
<!-- 0 -->
<g id="node1" class="node">
<title>0</title>
<ellipse fill="#ffffff" stroke="grey" cx="14.5" cy="-105.5" rx="14.5" ry="14.5"/>
<text text-anchor="middle" x="14.5" y="-101.8" font-family="Times,serif" font-size="14.00">0</text>
</g>
<!-- 0&#45;&gt;0 -->
<g id="edge1" class="edge">
<title>0&#45;&gt;0</title>
<path fill="none" stroke="grey" d="M25.49,-115.2C35.81,-120.23 47,-117 47,-105.5 47,-96.52 40.17,-92.58 32.26,-93.68"/>
<polygon fill="grey" stroke="grey" points="31.44,-91.37 25.49,-95.8 32.9,-96.05 31.44,-91.37"/>
</g>
<!-- 1 -->
<g id="node2" class="node">
<title>1</title>
<ellipse fill="#ffffff" stroke="grey" cx="14.5" cy="-40.5" rx="14.5" ry="14.5"/>
<text text-anchor="middle" x="14.5" y="-36.8" font-family="Times,serif" font-size="14.00">1</text>
</g>
<!-- 0&#45;&gt;1 -->
<g id="edge2" class="edge">
<title>0&#45;&gt;1</title>
<path fill="none" stroke="grey" d="M9,-92.05C7.66,-83.17 7.4,-71.04 8.21,-60.89"/>
<polygon fill="grey" stroke="grey" points="10.65,-61.15 9,-53.92 5.78,-60.6 10.65,-61.15"/>
</g>
<!-- 2 -->
<g id="node3" class="node">
<title>2</title>
<ellipse fill="#ffffff" stroke="grey" cx="61.5" cy="-40.5" rx="14.5" ry="14.5"/>
<text text-anchor="middle" x="61.5" y="-36.8" font-family="Times,serif" font-size="14.00">2</text>
</g>
<!-- 0&#45;&gt;2 -->
<g id="edge3" class="edge">
<title>0&#45;&gt;2</title>
<path fill="none" stroke="grey" d="M22.69,-93.53C29.88,-83.89 40.45,-69.71 48.75,-58.59"/>
<polygon fill="grey" stroke="grey" points="50.87,-59.85 53.09,-52.77 46.94,-56.92 50.87,-59.85"/>
</g>
<!-- 1&#45;&gt;0 -->
<g id="edge4" class="edge">
<title>1&#45;&gt;0</title>
<path fill="none" stroke="grey" d="M20,-53.92C21.34,-62.8 21.6,-74.93 20.79,-85.08"/>
<polygon fill="grey" stroke="grey" points="18.35,-84.82 20,-92.05 23.22,-85.37 18.35,-84.82"/>
</g>
<!-- 2&#45;&gt;2 -->
<g id="edge5" class="edge">
<title>2&#45;&gt;2</title>
<path fill="none" stroke="grey" d="M72.49,-50.2C82.81,-55.23 94,-52 94,-40.5 94,-31.52 87.17,-27.58 79.26,-28.68"/>
<polygon fill="grey" stroke="grey" points="78.44,-26.37 72.49,-30.8 79.9,-31.05 78.44,-26.37"/>
</g>
</g>
</svg>
