<?xml version="1.0" encoding="UTF-8" standalone="no"?>
<!DOCTYPE svg PUBLIC "-//W3C//DTD SVG 1.1//EN"
 "http://www.w3.org/Graphics/SVG/1.1/DTD/svg11.dtd">
<!-- Generated by graphviz version 2.43.0 (0)
 -->
<!-- Title: M3 Pages: 1 -->
<svg width="85pt" height="193pt"
 viewBox="0.00 0.00 85.00 193.00" xmlns="http://www.w3.org/2000/svg" xmlns:xlink="http://www.w3.org/1999/xlink">
<g id="graph0" class="graph" transform="scale(1 1) rotate(0) translate(4 189)">
<title>M3</title>
<polygon fill="transparent" stroke="transparent" points="-4,4 -4,-189 81,-189 81,4 -4,4"/>
<text text-anchor="middle" x="38.5" y="-9.2" font-family="Times,serif" font-size="16.00" fill="grey">M3</text>
<!-- 0 -->
<g id="node1" class="node">
<title>0</title>
<ellipse fill="#ffffff" stroke="grey" cx="44.5" cy="-170.5" rx="14.5" ry="14.5"/>
<text text-anchor="middle" x="44.5" y="-166.8" font-family="Times,serif" font-size="14.00">0</text>
</g>
<!-- 0&#45;&gt;0 -->
<g id="edge1" class="edge">
<title>0&#45;&gt;0</title>
<path fill="none" stroke="grey" d="M55.49,-180.2C65.81,-185.23 77,-182 77,-170.5 77,-161.52 70.17,-157.58 62.26,-158.68"/>
<polygon fill="grey" stroke="grey" points="61.44,-156.37 55.49,-160.8 62.9,-161.05 61.44,-156.37"/>
</g>
<!-- 1 -->
<g id="node2" class="node">
<title>1</title>
<ellipse fill="#ffffff" stroke="grey" cx="14.5" cy="-105.5" rx="14.5" ry="14.5"/>
<text text-anchor="middle" x="14.5" y="-101.8" font-family="Times,serif" font-size="14.00">1</text>
</g>
<!-- 0&#45;&gt;1 -->
<g id="edge2" class="edge">
<title>0&#45;&gt;1</title>
<path fill="none" stroke="grey" d="M38.57,-157.05C34.26,-147.99 28.34,-135.56 23.45,-125.3"/>
<polygon fill="grey" stroke="grey" points="25.64,-124.19 20.41,-118.92 21.21,-126.29 25.64,-124.19"/>
</g>
<!-- 2 -->
<g id="node3" class="node">
<title>2</title>
<ellipse fill="#ffffff" stroke="grey" cx="44.5" cy="-40.5" rx="14.5" ry="14.5"/>
<text text-anchor="middle" x="44.5" y="-36.8" font-family="Times,serif" font-size="14.00">2</text>
</g>
<!-- 0&#45;&gt;2 -->
<g id="edge3" class="edge">
<title>0&#45;&gt;2</title>
<path fill="none" stroke="grey" d="M48.63,-156.21C51.48,-146.33 55.01,-132.47 56.5,-120 58.03,-107.2 58.03,-103.8 56.5,-91 55.34,-81.26 52.93,-70.67 50.57,-61.79"/>
<polygon fill="grey" stroke="grey" points="52.86,-60.88 48.63,-54.79 48.14,-62.19 52.86,-60.88"/>
</g>
<!-- 1&#45;&gt;1 -->
<g id="edge4" class="edge">
<title>1&#45;&gt;1</title>
<path fill="none" stroke="grey" d="M25.49,-115.2C35.81,-120.23 47,-117 47,-105.5 47,-96.52 40.17,-92.58 32.26,-93.68"/>
<polygon fill="grey" stroke="grey" points="31.44,-91.37 25.49,-95.8 32.9,-96.05 31.44,-91.37"/>
</g>
<!-- 1&#45;&gt;2 -->
<g id="edge5" class="edge">
<title>1&#45;&gt;2</title>
<path fill="none" stroke="grey" d="M20.43,-92.05C24.74,-82.99 30.66,-70.56 35.55,-60.3"/>
<polygon fill="grey" stroke="grey" points="37.79,-61.29 38.59,-53.92 33.36,-59.19 37.79,-61.29"/>
</g>
<!-- 2&#45;&gt;2 -->
<g id="edge6" class="edge">
<title>2&#45;&gt;2</title>
<path fill="none" stroke="grey" d="M55.49,-50.2C65.81,-55.23 77,-52 77,-40.5 77,-31.52 70.17,-27.58 62.26,-28.68"/>
<polygon fill="grey" stroke="grey" points="61.44,-26.37 55.49,-30.8 62.9,-31.05 61.44,-26.37"/>
</g>
</g>
</svg>
