<?xml version="1.0" encoding="UTF-8" standalone="no"?>
<!DOCTYPE svg PUBLIC "-//W3C//DTD SVG 1.1//EN"
 "http://www.w3.org/Graphics/SVG/1.1/DTD/svg11.dtd">
<!-- Generated by graphviz version 2.43.0 (0)
 -->
<!-- Title: M4 Pages: 1 -->
<svg width="102pt" height="128pt"
 viewBox="0.00 0.00 102.00 128.00" xmlns="http://www.w3.org/2000/svg" xmlns:xlink="http://www.w3.org/1999/xlink">
<g id="graph0" class="graph" transform="scale(1 1) rotate(0) translate(4 124)">
<title>M4</title>
<polygon fill="transparent" stroke="transparent" points="-4,4 -4,-124 98,-124 98,4 -4,4"/>
<text text-anchor="middle" x="47" y="-9.2" font-family="Times,serif" font-size="16.00" fill="grey">M4</text>
<!-- 0 -->
<g id="node1" class="node">
<title>0</title>
<ellipse fill="#ffffff" stroke="grey" cx="14.5" cy="-105.5" rx="14.5" ry="14.5"/>
<text text-anchor="middle" x="14.5" y="-101.8" font-family="Times,serif" font-size="14.00">0</text>
</g>
<!-- 0&#45;&gt;0 -->
<g id="edge1" class="edge">
<title>0&#45;&gt;0</title>
<path fill="none" stroke="grey" d="M25.49,-115.2C35.81,-120.23 47,-117 47,-105.5 47,-96.52 40.17,-92.58 32.26,-93.68"/>
<polygon fill="grey" stroke="grey" points="31.44,-91.37 25.49,-95.8 32.9,-96.05 31.44,-91.37"/>
</g>
<!-- 2 -->
<g id="node3" class="node">
<title>2</title>
<ellipse fill="#ffffff" stroke="grey" cx="14.5" cy="-40.5" rx="14.5" ry="14.5"/>
<text text-anchor="middle" x="14.5" y="-36.8" font-family="Times,serif" font-size="14.00">2</text>
</g>
<!-- 0&#45;&gt;2 -->
<g id="edge2" class="edge">
<title>0&#45;&gt;2</title>
<path fill="none" stroke="grey" d="M14.5,-90.83C14.5,-82.49 14.5,-71.67 14.5,-62.28"/>
<polygon fill="grey" stroke="grey" points="16.95,-62.14 14.5,-55.14 12.05,-62.14 16.95,-62.14"/>
</g>
<!-- 1 -->
<g id="node2" class="node">
<title>1</title>
<ellipse fill="#ffffff" stroke="grey" cx="79.5" cy="-105.5" rx="14.5" ry="14.5"/>
<text text-anchor="middle" x="79.5" y="-101.8" font-family="Times,serif" font-size="14.00">1</text>
</g>
</g>
</svg>
