<?xml version="1.0" encoding="UTF-8" standalone="no"?>
<!DOCTYPE svg PUBLIC "-//W3C//DTD SVG 1.1//EN"
 "http://www.w3.org/Graphics/SVG/1.1/DTD/svg11.dtd">
<!-- Generated by graphviz version 2.43.0 (0)
 -->
<!-- Title: potentiel_tâche Pages: 1 -->
<svg width="153pt" height="375pt"
 viewBox="0.00 0.00 153.00 375.00" xmlns="http://www.w3.org/2000/svg" xmlns:xlink="http://www.w3.org/1999/xlink">
<g id="graph0" class="graph" transform="scale(1 1) rotate(0) translate(4 371)">
<title>potentiel_tâche</title>
<polygon fill="transparent" stroke="transparent" points="-4,4 -4,-371 149,-371 149,4 -4,4"/>
<text text-anchor="middle" x="72.5" y="-9.2" font-family="Times,serif" font-size="16.00" fill="grey">potentiel_tâche</text>
<!-- 0 -->
<g id="node1" class="node">
<title>0</title>
<ellipse fill="#ffffff" stroke="grey" cx="74.75" cy="-352.5" rx="14.5" ry="14.5"/>
<text text-anchor="middle" x="74.75" y="-348.8" font-family="Times,serif" font-size="14.00">0</text>
</g>
<!-- 1 -->
<g id="node2" class="node">
<title>1</title>
<ellipse fill="#ffffff" stroke="grey" cx="48.75" cy="-274.5" rx="14.5" ry="14.5"/>
<text text-anchor="middle" x="48.75" y="-270.8" font-family="Times,serif" font-size="14.00">1</text>
</g>
<!-- 0&#45;&gt;1 -->
<g id="edge1" class="edge">
<title>0&#45;&gt;1</title>
<path fill="none" stroke="grey" d="M70.34,-338.61C66.27,-326.71 60.16,-308.86 55.48,-295.18"/>
<polygon fill="grey" stroke="grey" points="57.77,-294.29 53.18,-288.46 53.13,-295.87 57.77,-294.29"/>
<text text-anchor="middle" x="73.25" y="-310.4" font-family="Times,serif" font-size="12.00" fill="grey">0.0</text>
</g>
<!-- 3 -->
<g id="node4" class="node">
<title>3</title>
<ellipse fill="#ffffff" stroke="grey" cx="92.75" cy="-196.5" rx="14.5" ry="14.5"/>
<text text-anchor="middle" x="92.75" y="-192.8" font-family="Times,serif" font-size="14.00">3</text>
</g>
<!-- 0&#45;&gt;3 -->
<g id="edge2" class="edge">
<title>0&#45;&gt;3</title>
<path fill="none" stroke="grey" d="M80.07,-338.85C82.22,-333.19 84.48,-326.36 85.75,-320 92.76,-284.78 93.57,-242.83 93.31,-218.29"/>
<polygon fill="grey" stroke="grey" points="95.76,-218.21 93.2,-211.25 90.86,-218.29 95.76,-218.21"/>
<text text-anchor="middle" x="101.25" y="-271.4" font-family="Times,serif" font-size="12.00" fill="grey">5.0</text>
</g>
<!-- 2 -->
<g id="node3" class="node">
<title>2</title>
<ellipse fill="#ffffff" stroke="grey" cx="48.75" cy="-118.5" rx="14.5" ry="14.5"/>
<text text-anchor="middle" x="48.75" y="-114.8" font-family="Times,serif" font-size="14.00">2</text>
</g>
<!-- 1&#45;&gt;2 -->
<g id="edge3" class="edge">
<title>1&#45;&gt;2</title>
<path fill="none" stroke="grey" d="M47.03,-259.63C45.56,-246.98 43.55,-227.77 42.75,-211 42.13,-198.13 42.13,-194.87 42.75,-182 43.41,-168.11 44.91,-152.55 46.24,-140.43"/>
<polygon fill="grey" stroke="grey" points="48.68,-140.6 47.03,-133.37 43.81,-140.05 48.68,-140.6"/>
<text text-anchor="middle" x="56.25" y="-193.4" font-family="Times,serif" font-size="12.00" fill="grey">12.0</text>
</g>
<!-- 1&#45;&gt;3 -->
<g id="edge4" class="edge">
<title>1&#45;&gt;3</title>
<path fill="none" stroke="grey" d="M52.81,-260.54C55.96,-251.39 60.78,-239.02 66.75,-229 70.04,-223.48 74.25,-217.93 78.33,-213.05"/>
<polygon fill="grey" stroke="grey" points="80.25,-214.57 82.98,-207.68 76.55,-211.36 80.25,-214.57"/>
<text text-anchor="middle" x="76.25" y="-232.4" font-family="Times,serif" font-size="12.00" fill="grey">7.0</text>
</g>
<!-- 4 -->
<g id="node5" class="node">
<title>4</title>
<ellipse fill="#ffffff" stroke="grey" cx="48.75" cy="-40.5" rx="14.5" ry="14.5"/>
<text text-anchor="middle" x="48.75" y="-36.8" font-family="Times,serif" font-size="14.00">4</text>
</g>
<!-- 2&#45;&gt;4 -->
<g id="edge5" class="edge">
<title>2&#45;&gt;4</title>
<path fill="none" stroke="grey" d="M48.75,-103.91C48.75,-92.42 48.75,-75.76 48.75,-62.54"/>
<polygon fill="grey" stroke="grey" points="51.2,-62.23 48.75,-55.23 46.3,-62.23 51.2,-62.23"/>
<text text-anchor="middle" x="58.25" y="-76.4" font-family="Times,serif" font-size="12.00" fill="grey">6.0</text>
</g>
<!-- 3&#45;&gt;2 -->
<g id="edge6" class="edge">
<title>3&#45;&gt;2</title>
<path fill="none" stroke="grey" d="M85.88,-183.62C78.75,-171.32 67.52,-151.92 59.27,-137.68"/>
<polygon fill="grey" stroke="grey" points="61.35,-136.37 55.72,-131.54 57.11,-138.83 61.35,-136.37"/>
<text text-anchor="middle" x="82.25" y="-154.4" font-family="Times,serif" font-size="12.00" fill="grey">4.0</text>
</g>
</g>
</svg>
