<?xml version="1.0" encoding="UTF-8" standalone="no"?>
<!DOCTYPE svg PUBLIC "-//W3C//DTD SVG 1.1//EN"
 "http://www.w3.org/Graphics/SVG/1.1/DTD/svg11.dtd">
<!-- Generated by graphviz version 2.43.0 (0)
 -->
<!-- Title: S Pages: 1 -->
<svg width="127pt" height="258pt"
 viewBox="0.00 0.00 127.00 258.00" xmlns="http://www.w3.org/2000/svg" xmlns:xlink="http://www.w3.org/1999/xlink">
<g id="graph0" class="graph" transform="scale(1 1) rotate(0) translate(4 254)">
<title>S</title>
<polygon fill="transparent" stroke="transparent" points="-4,4 -4,-254 123,-254 123,4 -4,4"/>
<text text-anchor="middle" x="59.5" y="-9.2" font-family="Times,serif" font-size="16.00" fill="grey">S</text>
<!-- 0 -->
<g id="node1" class="node">
<title>0</title>
<ellipse fill="#ffffff" stroke="grey" cx="80.5" cy="-235.5" rx="14.5" ry="14.5"/>
<text text-anchor="middle" x="80.5" y="-231.8" font-family="Times,serif" font-size="14.00">0</text>
</g>
<!-- 1 -->
<g id="node2" class="node">
<title>1</title>
<ellipse fill="#ffffff" stroke="grey" cx="14.5" cy="-170.5" rx="14.5" ry="14.5"/>
<text text-anchor="middle" x="14.5" y="-166.8" font-family="Times,serif" font-size="14.00">1</text>
</g>
<!-- 0&#45;&gt;1 -->
<g id="edge1" class="edge">
<title>0&#45;&gt;1</title>
<path fill="none" stroke="grey" d="M70.48,-224.93C59.72,-214.66 42.49,-198.22 29.99,-186.29"/>
<polygon fill="grey" stroke="grey" points="31.37,-184.22 24.62,-181.16 27.99,-187.76 31.37,-184.22"/>
</g>
<!-- 3 -->
<g id="node4" class="node">
<title>3</title>
<ellipse fill="#ffffff" stroke="grey" cx="52.5" cy="-105.5" rx="14.5" ry="14.5"/>
<text text-anchor="middle" x="52.5" y="-101.8" font-family="Times,serif" font-size="14.00">3</text>
</g>
<!-- 0&#45;&gt;3 -->
<g id="edge2" class="edge">
<title>0&#45;&gt;3</title>
<path fill="none" stroke="grey" d="M77.61,-221.28C72.7,-198.86 62.72,-153.24 56.93,-126.76"/>
<polygon fill="grey" stroke="grey" points="59.31,-126.15 55.42,-119.84 54.52,-127.2 59.31,-126.15"/>
</g>
<!-- 4 -->
<g id="node5" class="node">
<title>4</title>
<ellipse fill="#ffffff" stroke="grey" cx="104.5" cy="-40.5" rx="14.5" ry="14.5"/>
<text text-anchor="middle" x="104.5" y="-36.8" font-family="Times,serif" font-size="14.00">4</text>
</g>
<!-- 0&#45;&gt;4 -->
<g id="edge3" class="edge">
<title>0&#45;&gt;4</title>
<path fill="none" stroke="grey" d="M78.52,-220.93C78.8,-187.47 89.35,-100.87 97.7,-61.51"/>
<polygon fill="grey" stroke="grey" points="100.17,-61.66 99.33,-54.29 95.4,-60.58 100.17,-61.66"/>
</g>
<!-- 1&#45;&gt;3 -->
<g id="edge4" class="edge">
<title>1&#45;&gt;3</title>
<path fill="none" stroke="grey" d="M16.92,-156.14C21.63,-145.99 29.98,-132.04 37.6,-121.51"/>
<polygon fill="grey" stroke="grey" points="39.68,-122.82 41.96,-115.76 35.78,-119.85 39.68,-122.82"/>
</g>
<!-- 2 -->
<g id="node3" class="node">
<title>2</title>
<ellipse fill="#ffffff" stroke="grey" cx="52.5" cy="-40.5" rx="14.5" ry="14.5"/>
<text text-anchor="middle" x="52.5" y="-36.8" font-family="Times,serif" font-size="14.00">2</text>
</g>
<!-- 2&#45;&gt;1 -->
<g id="edge5" class="edge">
<title>2&#45;&gt;1</title>
<path fill="none" stroke="grey" d="M45.62,-53.32C40.2,-63.11 32.87,-77.56 28.5,-91 22.33,-110.01 18.66,-132.55 16.64,-148.58"/>
<polygon fill="grey" stroke="grey" points="14.17,-148.65 15.78,-155.89 19.03,-149.23 14.17,-148.65"/>
</g>
<!-- 2&#45;&gt;3 -->
<g id="edge6" class="edge">
<title>2&#45;&gt;3</title>
<path fill="none" stroke="grey" d="M58,-53.92C59.34,-62.8 59.6,-74.93 58.79,-85.08"/>
<polygon fill="grey" stroke="grey" points="56.35,-84.82 58,-92.05 61.22,-85.37 56.35,-84.82"/>
</g>
<!-- 3&#45;&gt;1 -->
<g id="edge7" class="edge">
<title>3&#45;&gt;1</title>
<path fill="none" stroke="grey" d="M49.89,-120.26C45.14,-130.38 36.91,-144.13 29.38,-154.52"/>
<polygon fill="grey" stroke="grey" points="27.35,-153.15 25.06,-160.2 31.25,-156.11 27.35,-153.15"/>
</g>
<!-- 3&#45;&gt;2 -->
<g id="edge8" class="edge">
<title>3&#45;&gt;2</title>
<path fill="none" stroke="grey" d="M47,-92.05C45.66,-83.17 45.4,-71.04 46.21,-60.89"/>
<polygon fill="grey" stroke="grey" points="48.65,-61.15 47,-53.92 43.78,-60.6 48.65,-61.15"/>
</g>
<!-- 3&#45;&gt;4 -->
<g id="edge9" class="edge">
<title>3&#45;&gt;4</title>
<path fill="none" stroke="grey" d="M61.32,-93.81C69.41,-84.01 81.53,-69.33 90.87,-58.02"/>
<polygon fill="grey" stroke="grey" points="92.89,-59.41 95.46,-52.45 89.12,-56.29 92.89,-59.41"/>
</g>
<!-- 4&#45;&gt;0 -->
<g id="edge10" class="edge">
<title>4&#45;&gt;0</title>
<path fill="none" stroke="grey" d="M106.48,-54.98C106.22,-88.41 95.63,-175.3 87.27,-214.63"/>
<polygon fill="grey" stroke="grey" points="84.8,-214.47 85.63,-221.84 89.58,-215.55 84.8,-214.47"/>
</g>
</g>
</svg>
