<?xml version="1.0" encoding="UTF-8" standalone="no"?>
<!DOCTYPE svg PUBLIC "-//W3C//DTD SVG 1.1//EN"
 "http://www.w3.org/Graphics/SVG/1.1/DTD/svg11.dtd">
<!-- Generated by graphviz version 2.43.0 (0)
 -->
<!-- Title: T Pages: 1 -->
<svg width="156pt" height="141pt"
 viewBox="0.00 0.00 155.81 141.02" xmlns="http://www.w3.org/2000/svg" xmlns:xlink="http://www.w3.org/1999/xlink">
<g id="graph0" class="graph" transform="scale(1 1) rotate(0) translate(4 137.02)">
<title>T</title>
<polygon fill="transparent" stroke="transparent" points="-4,4 -4,-137.02 151.81,-137.02 151.81,4 -4,4"/>
<text text-anchor="middle" x="73.91" y="-9.2" font-family="Times,serif" font-size="16.00" fill="grey">T</text>
<!-- 0 -->
<g id="node1" class="node">
<title>0</title>
<ellipse fill="#ffffff" stroke="grey" cx="41.82" cy="-40.5" rx="14.5" ry="14.5"/>
<text text-anchor="middle" x="41.82" y="-36.8" font-family="Times,serif" font-size="14.00">0</text>
</g>
<!-- 1 -->
<g id="node2" class="node">
<title>1</title>
<ellipse fill="#ffffff" stroke="grey" cx="93.85" cy="-101.12" rx="14.5" ry="14.5"/>
<text text-anchor="middle" x="93.85" y="-97.42" font-family="Times,serif" font-size="14.00">1</text>
</g>
<!-- 3 -->
<g id="node4" class="node">
<title>3</title>
<ellipse fill="#ffffff" stroke="grey" cx="133.31" cy="-118.52" rx="14.5" ry="14.5"/>
<text text-anchor="middle" x="133.31" y="-114.82" font-family="Times,serif" font-size="14.00">3</text>
</g>
<!-- 1&#45;&gt;3 -->
<g id="edge1" class="edge">
<title>1&#45;&gt;3</title>
<path fill="none" stroke="grey" d="M107.21,-107.01C109.14,-107.86 111.16,-108.75 113.19,-109.64"/>
<polygon fill="grey" stroke="grey" points="112.57,-112.05 119.97,-112.63 114.55,-107.57 112.57,-112.05"/>
</g>
<!-- 2 -->
<g id="node3" class="node">
<title>2</title>
<ellipse fill="#ffffff" stroke="grey" cx="51.5" cy="-85.26" rx="14.5" ry="14.5"/>
<text text-anchor="middle" x="51.5" y="-81.56" font-family="Times,serif" font-size="14.00">2</text>
</g>
<!-- 2&#45;&gt;0 -->
<g id="edge2" class="edge">
<title>2&#45;&gt;0</title>
<path fill="none" stroke="grey" d="M48.33,-70.6C47.71,-67.73 47.05,-64.67 46.39,-61.64"/>
<polygon fill="grey" stroke="grey" points="48.77,-61.05 44.9,-54.73 43.98,-62.09 48.77,-61.05"/>
</g>
<!-- 2&#45;&gt;1 -->
<g id="edge3" class="edge">
<title>2&#45;&gt;1</title>
<path fill="none" stroke="grey" d="M65.37,-90.45C67.88,-91.39 70.55,-92.39 73.21,-93.38"/>
<polygon fill="grey" stroke="grey" points="72.68,-95.8 80.1,-95.97 74.4,-91.22 72.68,-95.8"/>
</g>
<!-- 4 -->
<g id="node5" class="node">
<title>4</title>
<ellipse fill="#ffffff" stroke="grey" cx="14.5" cy="-112.26" rx="14.5" ry="14.5"/>
<text text-anchor="middle" x="14.5" y="-108.56" font-family="Times,serif" font-size="14.00">4</text>
</g>
<!-- 4&#45;&gt;2 -->
<g id="edge4" class="edge">
<title>4&#45;&gt;2</title>
<path fill="none" stroke="grey" d="M26.62,-103.42C28.99,-101.69 31.52,-99.84 34.02,-98.01"/>
<polygon fill="grey" stroke="grey" points="35.53,-99.95 39.74,-93.84 32.64,-95.99 35.53,-99.95"/>
</g>
</g>
</svg>
